<?xml version="1.0" encoding="UTF-8" standalone="no"?>
<svg
   width="3102"
   height="964"
   xml:space="preserve"
   overflow="hidden"
   version="1.1"
   id="svg4"
   sodipodi:docname="CardioVision_Full_Logo.svg"
   inkscape:version="1.3 (0e150ed6c4, 2023-07-21)"
   xmlns:inkscape="http://www.inkscape.org/namespaces/inkscape"
   xmlns:sodipodi="http://sodipodi.sourceforge.net/DTD/sodipodi-0.dtd"
   xmlns="http://www.w3.org/2000/svg"
   xmlns:svg="http://www.w3.org/2000/svg"><defs
     id="defs4" /><sodipodi:namedview
     id="namedview4"
     pagecolor="#ffffff"
     bordercolor="#000000"
     borderopacity="0.25"
     inkscape:showpageshadow="2"
     inkscape:pageopacity="0.0"
     inkscape:pagecheckerboard="0"
     inkscape:deskcolor="#d1d1d1"
     inkscape:zoom="0.19846388"
     inkscape:cx="1342.8136"
     inkscape:cy="604.64402"
     inkscape:window-width="1440"
     inkscape:window-height="830"
     inkscape:window-x="-6"
     inkscape:window-y="-6"
     inkscape:window-maximized="1"
     inkscape:current-layer="g4" /><g
     transform="translate(-723 -718)"
     id="g4"><text
       font-family="Constantia, Constantia_MSFontService, sans-serif"
       font-weight="400"
       font-size="440px"
       transform="translate(987.897,1302)"
       id="text1">Cardi   </text><g
       id="g3"><g
         id="g2"><g
           id="g1"><path
             d="M251.961 417.5C274.845 399.434 296.677 380.076 317.352 359.52 347.323 330.966 373.825 298.981 396.312 264.225 417.187 230.617 437.123 186.988 423.397 147.117 412.281 114.134 381.439 86.1094 346.003 82.7172 301.226 78.2813 268.818 116.169 250.5 152.44 233.748 119.248 206.036 85.0135 166.008 82.5085 130.469 80.3166 97.3819 105.314 82.091 136.366 62.9381 175.35 78.5422 219.188 98.6866 254.205 119.562 290.737 147.325 322.832 176.655 352.527 199.775 376.181 224.445 398.271 250.5 418.648ZM167 240.063 182.656 193.094 191.946 165.173C194.346 157.919 198.052 148.213 208.072 152.388 214.125 154.945 214.491 161.207 215.534 166.687L219.866 189.806 232.391 256.606 240.689 300.965 270.958 220.91 277.638 203.27C279.569 198.052 281.552 192.833 288.075 192.259 296.373 191.424 298.826 198.521 300.652 204.784L307.071 226.807 319.805 270.592 332.382 256.763C336.405 251.498 340.932 246.639 345.899 242.254 351.118 238.601 360.772 240.271 366.774 240.271L386.188 240.271C382.326 247.212 378.046 254.205 373.402 261.146L356.441 261.146C345.325 273.41 334.679 286.457 322.884 298.095 319.185 302.516 312.602 303.101 308.181 299.401 307.312 298.674 306.567 297.81 305.975 296.843 304.841 294.598 304.016 292.211 303.523 289.745L294.807 259.946 287.71 235.522C274.402 270.644 261.616 305.819 247.891 340.785 247.123 343.633 245.458 346.159 243.142 347.986 238.39 351.25 231.893 350.044 228.629 345.293 227.795 344.079 227.228 342.703 226.964 341.254 225.763 336.453 225.137 331.443 224.198 326.642L210.994 256.189 201.131 203.531 186.414 247.734C184.17 254.31 182.395 260.729 173.941 261.146 166.269 261.512 158.546 261.146 150.926 261.146L127.442 261.146C122.849 254.205 118.518 247.212 114.656 240.271Z"
             fill="#990000"
             transform="matrix(-1 0 0 1 2434 912)"
             id="path1" /></g></g></g><text
       xml:space="preserve"
       style="fill:#55aaff"
       x="2350.1484"
       y="1318.694"
       id="text4"><tspan
         sodipodi:role="line"
         id="tspan4"
         x="2350.1484"
         y="1318.694"
         style="font-style:normal;font-variant:normal;font-weight:normal;font-stretch:normal;font-size:440px;font-family:Constantia, Constantia_MSFontService, sans-serif;-inkscape-font-specification:'Constantia, Constantia_MSFontService, sans-serif, Normal';font-variant-ligatures:normal;font-variant-caps:normal;font-variant-numeric:normal;font-variant-east-asian:normal;fill:#000000">Vision</tspan></text></g></svg>
