<svg width="146" height="146" xmlns="http://www.w3.org/2000/svg" xmlns:xlink="http://www.w3.org/1999/xlink" xml:space="preserve" overflow="hidden"><g transform="translate(-562 -265)"><path d="M73.4258 121.667C80.0944 116.402 86.4568 110.761 92.4819 104.77 101.216 96.4491 108.939 87.1281 115.492 76.9998 121.575 67.2056 127.385 54.4915 123.385 42.8723 120.146 33.2606 111.158 25.0938 100.831 24.1052 87.7825 22.8125 78.3381 33.8538 73 44.4235 68.1181 34.751 60.0425 24.7744 48.3777 24.0444 38.0208 23.4056 28.3787 30.6904 23.9227 39.7394 18.3413 51.1 22.8885 63.875 28.759 74.0798 34.8423 84.7256 42.9331 94.0788 51.4802 102.732 58.218 109.626 65.4071 116.063 73 122.001ZM48.6667 69.9583 53.2292 56.2708 55.9362 48.1344C56.6358 46.0204 57.7156 43.1917 60.6356 44.4083 62.3998 45.1535 62.5062 46.9785 62.8104 48.5754L64.0727 55.3127 67.7227 74.7794 70.1408 87.7065 78.9617 64.3769 80.9083 59.2365C81.471 57.7156 82.049 56.1948 83.95 56.0275 86.3681 55.7842 87.0829 57.8525 87.6152 59.6775L89.4858 66.0954 93.1967 78.8552 96.8619 74.825C98.0343 73.2909 99.3535 71.8749 100.801 70.5971 102.322 69.5325 105.135 70.0192 106.884 70.0192L112.542 70.0192C111.416 72.0419 110.169 74.0798 108.816 76.1025L103.873 76.1025C100.634 79.6765 97.531 83.4785 94.094 86.87 93.0158 88.1583 91.0976 88.3288 89.8093 87.2507 89.5559 87.0387 89.3388 86.7868 89.1665 86.505 88.836 85.8509 88.5955 85.1553 88.4517 84.4367L85.9119 75.7527 83.8435 68.6352C79.9654 78.8704 76.2394 89.1208 72.2396 99.3104 72.0159 100.14 71.5306 100.877 70.8556 101.409 69.4709 102.36 67.5775 102.009 66.6263 100.624 66.3833 100.271 66.218 99.8695 66.141 99.4473 65.7913 98.0481 65.6087 96.5881 65.335 95.189L61.4873 74.6577 58.6129 59.3125 54.3242 72.194C53.6702 74.1102 53.1531 75.9808 50.6894 76.1025 48.4538 76.209 46.2029 76.1025 43.9825 76.1025L37.1388 76.1025C35.8004 74.0798 34.5381 72.0419 33.4127 70.0192Z" fill="#990000" transform="matrix(-1 0 0 1 708 265)"/></g></svg>