<svg width="1314" height="1313" xmlns="http://www.w3.org/2000/svg" xmlns:xlink="http://www.w3.org/1999/xlink" xml:space="preserve" overflow="hidden"><g transform="translate(-711 -397)"><path d="M1380.65 422C1452.03 422 1509.91 479.06 1509.91 549.446 1509.91 558.245 1509 566.835 1507.28 575.131L1502.67 589.775 1510.94 591.901C1536.61 599.882 1561.41 609.858 1585.14 621.646L1611.02 637.146 1614.82 625.077C1637.93 571.218 1692.01 533.427 1755.06 533.427 1839.11 533.427 1907.25 600.611 1907.25 683.487 1907.25 745.645 1868.92 798.975 1814.3 821.755L1799.65 826.24 1807.42 838.524C1816.68 856.068 1824.93 874.223 1832.11 892.914L1833.7 897.944 1835.8 897.735C1919.86 897.735 1988 964.92 1988 1047.8 1988 1120.31 1935.83 1180.82 1866.48 1194.81L1849.69 1196.48 1842.75 1223.48C1834.76 1249.14 1824.78 1273.92 1812.99 1297.65L1799.77 1321.8 1819.78 1332.51C1860.26 1359.47 1886.88 1405.14 1886.88 1456.94 1886.88 1539.82 1818.74 1607 1734.69 1607 1682.15 1607 1635.83 1580.76 1608.48 1540.84L1596.68 1519.41 1596.02 1519.83C1525.81 1556.85 1445.81 1577.81 1360.92 1577.81 1273.84 1577.81 1191.92 1555.77 1120.43 1516.95L1087.66 1497.05 1085.11 1501.68C1057.76 1541.6 1011.45 1567.84 958.911 1567.84 874.856 1567.84 806.716 1500.66 806.716 1417.78 806.716 1355.62 845.045 1302.29 899.67 1279.51L900.588 1279.23 896.049 1269.82C883.285 1239.65 873.373 1207.98 866.652 1175.15L866.38 1173.37 845.954 1167.12C791.329 1144.34 753 1091.01 753 1028.85 753 956.335 805.17 895.832 874.523 881.84L895.189 879.786 897.255 874.404 918.895 830.822 916.03 829.945C861.405 807.165 823.076 753.834 823.076 691.677 823.076 608.801 891.216 541.617 975.271 541.617 1027.81 541.617 1074.12 567.86 1101.47 607.777L1115.44 633.153 1159.25 611.131C1176.01 603.818 1193.24 597.388 1210.89 591.901L1255.67 580.391 1254.01 575.131C1252.29 566.835 1251.39 558.245 1251.39 549.446 1251.39 479.06 1309.26 422 1380.65 422Z" stroke="#404040" stroke-width="13.75" stroke-miterlimit="8" stroke-dasharray="55 41.25 13.75 41.25" fill="none" fill-rule="evenodd"/><path d="M718 620.505C718 500.932 814.933 404 934.505 404L1801.5 404C1921.07 404 2018 500.932 2018 620.505L2018 1486.5C2018 1606.07 1921.07 1703 1801.5 1703L934.505 1703C814.933 1703 718 1606.07 718 1486.5Z" stroke="#990000" stroke-width="13.75" stroke-miterlimit="8" fill="none" fill-rule="evenodd"/><path d="M1137.5 1015C1137.5 888.251 1240.25 785.5 1367 785.5 1493.75 785.5 1596.5 888.251 1596.5 1015 1596.5 1141.75 1493.75 1244.5 1367 1244.5 1240.25 1244.5 1137.5 1141.75 1137.5 1015Z" stroke="#FFFFFF" stroke-width="20.625" stroke-miterlimit="8" fill="#990000" fill-rule="evenodd"/><path d="M1168.5 1015C1168.5 905.371 1257.37 816.5 1367 816.5 1476.63 816.5 1565.5 905.371 1565.5 1015 1565.5 1124.63 1476.63 1213.5 1367 1213.5 1257.37 1213.5 1168.5 1124.63 1168.5 1015Z" stroke="#FFFFFF" stroke-width="20.625" stroke-miterlimit="8" fill="#990000" fill-rule="evenodd"/><g><g><g><path d="M150.647 21.3719 150.647 21.3719C156.614 21.2941 162.5 22.7591 167.734 25.625 185.17 35.0431 191.669 56.8125 182.251 74.2478 172.833 91.6835 151.064 98.1828 133.628 88.7647 122.036 82.5028 114.808 70.3913 114.8 57.2156 114.803 37.42 130.851 21.3736 150.647 21.3719M150.647 15.1219C127.398 15.1202 108.549 33.9663 108.547 57.2156L108.547 57.2156C108.352 75.3603 119.93 91.5422 137.166 97.2157 159.228 104.638 183.129 92.7697 190.552 70.7075 197.973 48.6456 186.106 24.7439 164.043 17.3218 159.727 15.8697 155.204 15.1268 150.65 15.1219Z" stroke="#FFFFFF" stroke-width="3.125" fill="#FFFFFF" transform="matrix(1.00333 0 0 1 1227 854)"/><path d="M203.178 252.188 203.178 284.594 209.428 284.594 209.428 251.563C207.369 251.962 205.276 252.172 203.178 252.188Z" stroke="#FFFFFF" stroke-width="3.125" fill="#FFFFFF" transform="matrix(1.00333 0 0 1 1227 854)"/><path d="M150.625 106.719C114.45 106.719 81.5344 121.719 68.8875 135.906 67.3681 137.737 66.0869 139.753 65.075 141.906 64.4253 143.42 63.8785 144.975 63.4375 146.563L35.0938 253.616C31.5059 266.053 38.6794 279.044 51.1166 282.631 63.5535 286.219 76.5441 279.046 80.1322 266.609 80.1681 266.483 80.2035 266.357 80.2375 266.231L90.4657 228.022C90.5 227.894 90.5282 227.897 90.5282 228.022L90.5282 284.647 96.7782 284.647 96.7782 204.444 100.05 192.219 100.05 192.219C100.498 190.552 99.5094 188.837 97.8422 188.389 96.175 187.941 94.4603 188.93 94.0125 190.597L90.625 203.163C90.6 203.263 90.575 203.363 90.5594 203.475L74.3438 264.063 74.2656 264.375C72.466 271.478 66.3066 276.62 58.9969 277.122 49.49 277.816 41.2206 270.672 40.5263 261.165 40.381 259.173 40.5822 257.17 41.1219 255.247L69.475 148.147C69.8322 146.889 70.2672 145.654 70.7781 144.45 71.5347 142.862 72.4788 141.37 73.5906 140.006 80.7188 132.016 98.2469 121.734 120.888 116.45L148.491 182.934C136.031 188.43 127.985 200.757 127.969 214.375L127.969 242.813 202.969 242.813C221.954 242.813 237.344 227.422 237.344 208.438L237.344 146.25C237.344 131.356 196.813 106.719 150.625 106.719ZM202.969 236.563 134.219 236.563 134.219 214.375C134.219 198.842 146.811 186.25 162.344 186.25L231.094 186.25 231.094 208.438C231.094 223.971 218.502 236.563 202.969 236.563ZM162.344 180C159.679 180.01 157.025 180.331 154.434 180.956L127.119 115.166C134.872 113.725 142.739 112.993 150.625 112.978 195.413 112.978 231.094 136.878 231.094 146.469L231.094 180Z" stroke="#FFFFFF" stroke-width="3.125" fill="#FFFFFF" transform="matrix(1.00333 0 0 1 1227 854)"/></g></g></g><g><g><g><path d="M186.61 145.595C178.013 138.782 168.363 133.415 158.04 129.707 162.721 128.454 167.201 126.544 171.347 124.035 172.514 123.297 172.861 121.752 172.123 120.585 172.013 120.411 171.882 120.252 171.732 120.11 171.655 120.037 163.932 112.61 163.345 104.512 163.635 98.6662 164.472 92.8602 165.845 87.17 167.946 77.8882 169.24 68.4422 169.712 58.9375 169.712 46.705 166.432 39.8575 158.395 35.3075 154.87 33.3075 148.875 33.9925 145.775 34.535 143.605 31.615 137.81 25.4275 125.635 21.6375 112.524 18.035 98.5155 19.8443 86.75 26.66 75.9325 33.66 71.52 44.555 71.52 64.3 71.52 74.0125 72.08 82.5275 72.575 90.05 73.2862 96.6155 73.3925 103.232 72.8925 109.817 72.1072 114.137 70.2265 118.183 67.43 121.567 66.6105 122.679 66.847 124.244 67.9582 125.063 68.0502 125.131 68.147 125.193 68.2475 125.247 72.356 127.382 76.7217 128.979 81.2375 130 71.1792 133.669 61.7772 138.934 53.3925 145.592 48.3027 149.766 45.247 155.922 45 162.5L45 205.085 46.1125 205.835C57.7975 213.61 89.4375 217.5 120.815 217.5 152.315 217.5 183.565 213.58 193.99 205.75L195 205 195 162.447C194.74 155.889 191.686 149.756 186.61 145.595ZM156.262 155C159.024 155 161.262 157.238 161.262 160 161.262 162.761 159.024 165 156.262 165 153.501 165 151.262 162.761 151.262 160 151.262 157.238 153.501 155 156.262 155ZM142.82 128.922C143.11 129.075 143.395 129.237 143.702 129.365L145.452 130.082C137.418 133.524 128.738 135.2 120 135 111.259 135.201 102.576 133.523 94.54 130.077L96.29 129.365 97.39 128.845C100.553 127.078 102.509 123.735 102.5 120.112L102.5 115.632C113.446 121.449 126.566 121.449 137.512 115.632L137.512 120.102C137.57 123.782 139.596 127.148 142.82 128.922ZM120 115C102.059 114.981 87.5192 100.441 87.5 82.5L87.5 72.41C98.3505 71.5097 108.997 68.9447 119.067 64.805L121.647 63.515C128.558 60.513 134.912 56.3665 140.442 51.25 140.87 54.19 142.442 64.1175 144.792 68.3225 146.462 71.371 148.902 73.9292 151.867 75.7425L152.505 76.1775 152.505 82.5C152.484 100.443 137.943 114.982 120 115ZM82.5 70 82.5 82.5C82.5107 94.2732 88.061 105.355 97.4825 112.415L97.4825 120.112C97.4802 122.074 96.3235 123.851 94.53 124.647 87.7525 127.737 77.81 124.117 73.1775 122.06 75.6115 118.622 77.2097 114.664 77.845 110.5 78.4072 103.579 78.3135 96.6207 77.565 89.7175 77.065 82.28 76.52 73.8525 76.52 64.305 76.52 46.4925 80.27 36.805 89.3475 30.935 99.9092 24.842 112.468 23.2219 124.23 26.435 138.032 30.735 142.372 38.42 142.405 38.48 142.931 39.4747 144.056 39.9955 145.155 39.7525 148.405 39.0225 153.885 38.5025 155.905 39.6575 161.327 42.7275 164.687 47.0225 164.687 58.925 164.208 68.1132 162.945 77.244 160.912 86.2175 159.413 92.332 158.551 98.5855 158.34 104.877 159.19 110.993 161.861 116.71 166.005 121.287 161.435 123.65 151.93 127.682 145.327 124.587 143.6 123.766 142.5 122.025 142.5 120.112L142.5 112.432C151.933 105.372 157.49 94.2822 157.5 82.5L157.472 75C157.481 74.3825 157.258 73.784 156.847 73.3225 156.183 72.6497 155.438 72.062 154.63 71.5725 152.329 70.1937 150.439 68.226 149.152 65.8725 147.234 60.934 145.968 55.7662 145.387 50.5 144.975 47.817 142.466 45.976 139.783 46.388 138.797 46.5395 137.88 46.9875 137.155 47.6725 131.886 52.3832 125.898 56.2207 119.417 59.04L116.917 60.29C106.767 64.4947 95.9722 66.9332 85 67.5 83.6192 67.5 82.5 68.6192 82.5 70ZM153.75 133.422 153.75 150.187C153.75 150.245 153.78 150.29 153.782 150.345 148.43 151.708 145.197 157.152 146.561 162.504 147.924 167.856 153.368 171.089 158.72 169.726 164.072 168.362 167.305 162.918 165.942 157.567 165.038 154.019 162.268 151.249 158.72 150.345 158.72 150.29 158.75 150.242 158.75 150.187L158.75 135.402C167.628 138.77 175.931 143.492 183.362 149.402 187.365 152.603 189.785 157.38 190 162.5L190 202.44C168.75 216.037 73.545 215.977 50 202.357L50 162.552C50.1972 157.418 52.6112 152.622 56.6175 149.405 64.0557 143.494 72.3652 138.771 81.25 135.405L81.25 150.065C72.1012 150.72 65.0107 158.328 65 167.5L65 186.25C65.008 189.731 67.4097 192.748 70.8 193.537 72.0625 195.179 74.417 195.486 76.0587 194.224 77.7005 192.961 78.0077 190.607 76.7452 188.965 75.4827 187.324 73.1282 187.016 71.4865 188.279 71.4305 188.322 71.376 188.366 71.3225 188.412 70.518 187.989 70.0102 187.159 70 186.25L70 167.5C70.0082 160.6 75.5997 155.008 82.5 155L85 155C91.9002 155.008 97.4917 160.6 97.5 167.5L97.5 186.25C97.4907 187.158 96.984 187.989 96.18 188.412 94.612 187.059 92.2442 187.233 90.891 188.801 89.5377 190.369 89.712 192.737 91.2797 194.09 92.8477 195.443 95.2157 195.269 96.5687 193.701 96.615 193.648 96.6595 193.593 96.7025 193.537 100.092 192.747 102.492 189.73 102.5 186.25L102.5 167.5C102.491 158.327 95.3997 150.718 86.25 150.062L86.25 133.412 88.67 132.5C95.44 137.147 107.25 140 120 140 132.75 140 144.557 137.147 151.327 132.5Z" fill="#990000" transform="matrix(1 0 0 1 1246 436)"/><path d="M158.762 160C158.762 161.381 157.643 162.5 156.262 162.5 154.882 162.5 153.762 161.381 153.762 160 153.762 158.619 154.882 157.5 156.262 157.5 157.643 157.5 158.762 158.619 158.762 160Z" fill="#990000" transform="matrix(1 0 0 1 1246 436)"/></g></g></g><g><g><g><path d="M143.719 31.9375 118.573 31.9375C122.391 26.927 121.424 19.7698 116.413 15.9518 111.403 12.1338 104.246 13.1006 100.427 18.1112 97.3158 22.1948 97.3158 27.8538 100.427 31.9375L75.2812 31.9375C61.429 31.9539 50.2039 43.179 50.1875 57.0312L50.1875 152.844C50.2039 166.696 61.429 177.921 75.2812 177.937L95.8125 177.937 95.8125 189.344C95.8125 191.864 97.8551 193.906 100.375 193.906L107.219 193.906 107.219 209.875 111.781 209.875 111.781 193.906 118.625 193.906C121.145 193.906 123.187 191.864 123.187 189.344L123.187 177.937 143.719 177.937C157.571 177.921 168.796 166.696 168.812 152.844L168.812 57.0312C168.796 43.179 157.571 31.9539 143.719 31.9375ZM102.656 25.0937C102.656 21.3141 105.72 18.25 109.5 18.25 113.28 18.25 116.344 21.3141 116.344 25.0937 116.344 28.8736 113.28 31.9375 109.5 31.9375 105.72 31.9375 102.656 28.8736 102.656 25.0937ZM75.2812 36.5 143.719 36.5C155.053 36.5125 164.237 45.6973 164.25 57.0312L164.25 61.5937 143.719 61.5937 143.719 66.1562 164.25 66.1562 164.25 84.4062 143.719 84.4062 143.719 88.9687 164.25 88.9687 164.25 107.219 143.719 107.219 143.719 111.781 164.25 111.781 164.25 124.28C153.528 128.033 139.685 126.618 121.985 119.946 118.106 118.433 114.306 116.725 110.6 114.829 104.194 111.276 97.2339 108.832 90.0135 107.6 78.0249 106.058 65.8421 107.779 54.75 112.582L54.75 57.0312C54.7625 45.6973 63.9473 36.5125 75.2812 36.5ZM118.625 189.344 100.375 189.344 100.375 177.937 118.625 177.937ZM143.719 173.375 75.2812 173.375C63.9473 173.362 54.7625 164.178 54.75 152.844L54.75 117.749C64.8103 112.162 79.5631 110.638 89.3383 112.103 96.0945 113.265 102.604 115.567 108.587 118.912 112.425 120.875 116.36 122.642 120.377 124.205 130.206 128.279 140.685 130.561 151.318 130.944 155.698 130.973 160.058 130.342 164.25 129.073L164.25 152.844C164.237 164.178 155.053 173.362 143.719 173.375Z" fill="#990000" transform="matrix(1.00457 0 0 1 829 536)"/></g></g></g><g><g><g><path d="M1772.6 1131.44C1772.5 1131.44 1772.41 1131.44 1772.31 1131.44 1770.78 1131.32 1769.52 1130.19 1769.22 1128.69L1739.54 980.8C1739.54 980.732 1739.5 980.728 1739.48 980.8L1716.17 1048.88C1715.69 1050.27 1714.38 1051.21 1712.91 1051.2L1651.5 1051.2 1651.5 1044.33 1710.45 1044.33 1737.13 966.418C1737.74 964.621 1739.69 963.662 1741.49 964.275 1742.65 964.671 1743.51 965.653 1743.75 966.854L1773.6 1115.55C1773.6 1115.61 1773.64 1115.61 1773.67 1115.55L1817.09 1001.72C1817.6 1000.33 1818.97 999.427 1820.45 999.518 1821.93 999.581 1823.2 1000.58 1823.61 1002.01L1845.16 1077.38C1845.16 1077.41 1845.2 1077.42 1845.22 1077.38L1875.22 1045.41C1875.87 1044.72 1876.77 1044.33 1877.73 1044.33L1926.5 1044.33 1926.5 1051.2 1879.21 1051.2 1846.06 1086.56C1844.77 1087.94 1842.59 1088.02 1841.2 1086.72 1840.75 1086.29 1840.42 1085.75 1840.25 1085.15L1819.87 1013.92C1819.87 1013.87 1819.82 1013.86 1819.8 1013.92L1775.81 1129.23C1775.3 1130.56 1774.02 1131.44 1772.6 1131.44Z" fill="#990000"/></g></g></g><g><g><g><path d="M148.361 245.834C161.835 235.196 174.69 223.797 186.864 211.693 204.512 194.88 220.117 176.047 233.358 155.582 245.649 135.792 257.388 110.103 249.306 86.6256 242.761 67.2048 224.6 50.7032 203.735 48.7058 177.369 46.0938 158.286 68.4032 147.5 89.76 137.636 70.2162 121.319 50.0579 97.7496 48.5829 76.823 47.2922 57.3407 62.0115 48.337 80.2954 37.0594 103.25 46.2474 129.063 58.1089 149.682 70.4006 171.192 86.7485 190.091 104.018 207.576 117.632 221.504 132.158 234.511 147.5 246.51ZM98.3334 141.354 107.552 113.698 113.022 97.2579C114.436 92.9866 116.617 87.2709 122.517 89.7293 126.082 91.235 126.297 94.9225 126.912 98.1491L129.462 111.762 136.837 151.095 141.723 177.215 159.546 130.077 163.479 119.69C164.616 116.617 165.784 113.544 169.625 113.206 174.511 112.715 175.955 116.894 177.031 120.581L180.811 133.549 188.309 159.331 195.714 151.188C198.083 148.088 200.749 145.227 203.673 142.645 206.746 140.494 212.431 141.477 215.965 141.477L227.396 141.477C225.122 145.564 222.602 149.682 219.867 153.769L209.88 153.769C203.335 160.99 197.066 168.673 190.122 175.525 187.943 178.128 184.067 178.473 181.464 176.294 180.952 175.866 180.513 175.357 180.165 174.788 179.498 173.466 179.012 172.06 178.721 170.609L173.589 153.062 169.41 138.681C161.574 159.362 154.045 180.073 145.964 200.662 145.512 202.339 144.531 203.826 143.167 204.902 140.369 206.824 136.544 206.114 134.622 203.316 134.131 202.602 133.797 201.791 133.641 200.938 132.935 198.111 132.566 195.161 132.013 192.334L124.238 150.85 118.43 119.844 109.765 145.872C108.443 149.743 107.399 153.523 102.42 153.769 97.9032 153.984 93.3553 153.769 88.8688 153.769L75.0407 153.769C72.3365 149.682 69.786 145.564 67.512 141.477Z" fill="#990000" transform="matrix(1.00339 0 0 1 810 1304)"/></g></g></g><g><g><g><path d="M1850.09 637.34C1843.95 619.104 1826.9 603.609 1807.3 601.734 1805.97 601.601 1804.65 601.537 1803.36 601.537 1780.66 601.537 1764.12 621.277 1754.52 640.234 1754.52 640.263 1754.49 640.263 1754.48 640.234 1745.21 621.9 1729.9 603.012 1707.79 601.618 1706.98 601.568 1706.18 601.543 1705.38 601.543 1686.65 601.543 1669.5 614.932 1661.39 631.396 1650.8 652.95 1659.43 677.187 1670.56 696.548 1682.52 716.46 1697.01 734.733 1713.67 750.91 1726.45 763.989 1740.09 776.202 1754.5 787.468L1755.31 786.833C1767.96 776.844 1780.03 766.141 1791.46 754.776 1808.03 738.989 1822.69 721.304 1835.12 702.089 1846.66 683.506 1857.68 659.384 1850.09 637.34ZM1787.39 750.685C1776.95 761.061 1765.97 770.881 1754.5 780.104 1741.6 769.776 1729.33 758.672 1717.78 746.856 1702.54 732.005 1689.12 715.399 1677.79 697.385L1712.52 697.385C1713.73 697.328 1714.8 696.565 1715.25 695.435L1728.14 657.763C1728.16 657.705 1728.19 657.708 1728.2 657.763L1744.59 743.084C1744.84 744.355 1745.9 745.307 1747.19 745.413 1747.27 745.417 1747.36 745.417 1747.44 745.413 1748.64 745.412 1749.71 744.673 1750.14 743.555L1775.61 676.801C1775.62 676.757 1775.65 676.757 1775.66 676.801L1787.52 717.65C1787.97 719.179 1789.57 720.054 1791.1 719.605 1791.6 719.459 1792.05 719.182 1792.4 718.804L1812.45 697.385 1831.21 697.385 1831.23 697.44C1818.82 716.889 1804.1 734.767 1787.39 750.685ZM1834.58 691.614 1811.2 691.614C1810.42 691.659 1809.67 691.983 1809.1 692.529L1791.68 711.152C1791.66 711.172 1791.64 711.166 1791.63 711.152L1778.77 666.86C1778.32 665.331 1776.72 664.453 1775.19 664.899 1774.32 665.152 1773.62 665.795 1773.3 666.638L1748.39 731.941C1748.37 731.993 1748.34 731.993 1748.33 731.941L1731.8 645.912C1731.55 644.629 1730.47 643.672 1729.17 643.581 1727.85 643.452 1726.63 644.262 1726.23 645.523L1710.45 691.614 1674.43 691.614C1661.71 668.664 1659.04 649.262 1666.56 633.946 1674.41 618.016 1690.01 607.314 1705.38 607.314 1706.06 607.314 1706.74 607.337 1707.42 607.378 1727.91 608.659 1741.53 627.394 1749.35 642.883L1754.47 653.036C1754.47 653.065 1754.51 653.065 1754.52 653.036L1759.65 642.885C1765.05 632.189 1780.14 607.308 1803.36 607.308 1804.47 607.308 1805.61 607.366 1806.75 607.479 1823.29 609.063 1838.87 622.099 1844.64 639.218 1849.53 653.438 1846.21 670.663 1834.58 691.614Z" fill="#990000"/></g></g></g><g><g><g><path d="M112 37.3334C70.7 37.3334 37.3334 70.7 37.3334 112 37.3334 153.3 70.7 186.667 112 186.667 153.3 186.667 186.667 153.3 186.667 112 186.667 70.7 153.3 37.3334 112 37.3334ZM112 200.667C63 200.667 23.3333 161 23.3333 112 23.3333 63 63 23.3333 112 23.3333 161 23.3333 200.667 63 200.667 112 200.667 161 161 200.667 112 200.667Z" fill="#990000" transform="matrix(1.00446 0 0 1 1258 1304)"/><path d="M158.667 93.3334 130.667 93.3334 130.667 65.3334C130.667 60.2 126.467 56 121.333 56L102.667 56C97.5334 56 93.3334 60.2 93.3334 65.3334L93.3334 93.3334 65.3334 93.3334C60.2 93.3334 56 97.5334 56 102.667L56 121.333C56 126.467 60.2 130.667 65.3334 130.667L93.3334 130.667 93.3334 158.667C93.3334 163.8 97.5334 168 102.667 168L121.333 168C126.467 168 130.667 163.8 130.667 158.667L130.667 130.667 158.667 130.667C163.8 130.667 168 126.467 168 121.333L168 102.667C168 97.5334 163.8 93.3334 158.667 93.3334Z" fill="#990000" transform="matrix(1.00446 0 0 1 1258 1304)"/></g></g></g><g><g><g><path d="M104.743 86.4407 99.1946 80.8926 91.5104 88.5794 83.8261 80.8926 78.278 86.4407 85.9649 94.125 78.278 101.809 83.8261 107.357 91.5104 99.6705 99.1946 107.357 104.743 101.809 97.0559 94.125 104.743 86.4407Z" fill="#990000" transform="matrix(1.00398 0 0 1 777 903)"/><path d="M99.1946 112.268 91.5104 119.954 83.8261 112.268 78.278 117.816 85.9649 125.5 78.278 133.184 83.8261 138.732 91.5104 131.045 99.1946 138.732 104.743 133.184 97.0559 125.5 104.743 117.816 99.1946 112.268Z" fill="#990000" transform="matrix(1.00398 0 0 1 777 903)"/><path d="M190.865 214.396 60.1354 214.396 60.1354 52.2916 88.8958 52.2916 88.8958 67.9791 162.104 67.9791 162.104 52.2916 190.865 52.2916ZM125.5 31.375C129.832 31.375 133.344 34.8866 133.344 39.2187 133.344 43.5508 129.832 47.0625 125.5 47.0625 121.168 47.0625 117.656 43.5508 117.656 39.2187 117.585 34.958 120.981 31.4464 125.242 31.375 125.328 31.3734 125.414 31.3734 125.5 31.375ZM196.094 36.6042 151.646 36.6042 151.646 31.375C151.646 25.599 146.963 20.9167 141.187 20.9167L109.812 20.9167C104.037 20.9167 99.3541 25.599 99.3541 31.375L99.3541 36.6042 54.9062 36.6042C49.1304 36.6042 44.4479 41.2866 44.4479 47.0625L44.4479 219.625C44.4479 225.401 49.1304 230.083 54.9062 230.083L196.094 230.083C201.87 230.083 206.552 225.401 206.552 219.625L206.552 47.0625C206.552 41.2866 201.87 36.6042 196.094 36.6042Z" fill="#990000" transform="matrix(1.00398 0 0 1 777 903)"/><path d="M130.729 88.8958 175.177 88.8958 175.177 99.3541 130.729 99.3541Z" fill="#990000" transform="matrix(1.00398 0 0 1 777 903)"/><path d="M130.729 120.271 175.177 120.271 175.177 130.729 130.729 130.729Z" fill="#990000" transform="matrix(1.00398 0 0 1 777 903)"/><path d="M130.729 151.646 175.177 151.646 175.177 162.104 130.729 162.104Z" fill="#990000" transform="matrix(1.00398 0 0 1 777 903)"/><path d="M130.729 183.021 175.177 183.021 175.177 193.479 130.729 193.479Z" fill="#990000" transform="matrix(1.00398 0 0 1 777 903)"/><path d="M82.3594 147.724 100.661 147.724 100.661 166.026 82.3594 166.026Z" fill="#990000" transform="matrix(1.00398 0 0 1 777 903)"/><path d="M82.3594 179.099 100.661 179.099 100.661 197.401 82.3594 197.401Z" fill="#990000" transform="matrix(1.00398 0 0 1 777 903)"/></g></g></g><g><g><g><path d="M1755.25 1473.98C1755.25 1479.69 1750.58 1484.36 1744.88 1484.36L1734.5 1484.36C1728.79 1484.36 1724.12 1479.69 1724.12 1473.98L1724.12 1468.8 1635.94 1468.8 1635.94 1541.42C1635.94 1547.13 1640.61 1551.8 1646.31 1551.8L1833.06 1551.8C1838.77 1551.8 1843.44 1547.13 1843.44 1541.42L1843.44 1468.8 1755.25 1468.8 1755.25 1473.98Z" fill="#990000"/><path d="M1833.06 1406.55 1781.19 1406.55 1781.19 1389.69C1781.19 1379.57 1773.15 1371.53 1763.03 1371.53L1716.34 1371.53C1706.23 1371.53 1698.19 1379.57 1698.19 1389.69L1698.19 1406.55 1646.31 1406.55C1640.61 1406.55 1635.94 1411.22 1635.94 1416.92L1635.94 1458.42 1724.12 1458.42 1724.12 1453.23 1755.25 1453.23 1755.25 1458.42 1843.44 1458.42 1843.44 1416.92C1843.44 1411.22 1838.77 1406.55 1833.06 1406.55M1713.75 1406.55 1713.75 1389.69C1713.75 1388.13 1714.79 1387.09 1716.34 1387.09L1763.03 1387.09C1764.59 1387.09 1765.62 1388.13 1765.62 1389.69L1765.62 1406.55 1713.75 1406.55Z" fill="#990000"/></g></g></g><g><g><g><path d="M1830.67 1500.25 1803.75 1500.25 1803.75 1473.33 1794.25 1473.33 1794.25 1500.25 1767.33 1500.25 1767.33 1509.75 1794.25 1509.75 1794.25 1536.67 1803.75 1536.67 1803.75 1509.75 1830.67 1509.75Z" fill="#FFFFFF"/></g></g></g><path d="M0 0 54.3089 0 54.3089 0.769062 108.618 0.769062" stroke="#000000" stroke-width="6.875" stroke-miterlimit="8" fill="none" fill-rule="evenodd" transform="matrix(-1.83697e-16 -1 -1 1.83697e-16 1367.27 785.118)"/><path d="M0 0 48.7307 0 48.7307 265.546 97.4612 265.546" stroke="#000000" stroke-width="6.875" stroke-miterlimit="8" fill="none" fill-rule="evenodd" transform="matrix(-1.83697e-16 -1 -1 1.83697e-16 1205.05 852.961)"/><path d="M1205.41 1177.5 1205.41 1304.5 958.5 1304.5" stroke="#000000" stroke-width="6.875" stroke-miterlimit="8" fill="none" fill-rule="evenodd"/><path d="M0 0 49.7216 0 49.7216 368.229 99.4428 368.229" stroke="#000000" stroke-width="6.875" stroke-miterlimit="8" fill="none" fill-rule="evenodd" transform="matrix(1.83697e-16 1 1 -1.83697e-16 1367.5 1244.5)"/><path d="M1529.5 852.981 1529.5 731.5 1678.13 731.5" stroke="#000000" stroke-width="6.875" stroke-miterlimit="8" fill="none" fill-rule="evenodd"/></g></svg>