<svg width="1313" height="1313" xmlns="http://www.w3.org/2000/svg" xmlns:xlink="http://www.w3.org/1999/xlink" xml:space="preserve" overflow="hidden"><g transform="translate(-1533 -1041)"><path d="M1540 1264.5C1540 1144.93 1636.93 1048 1756.5 1048L2622.5 1048C2742.07 1048 2839 1144.93 2839 1264.5L2839 2130.5C2839 2250.07 2742.07 2347 2622.5 2347L1756.5 2347C1636.93 2347 1540 2250.07 1540 2130.5Z" stroke="#990000" stroke-width="13.75" stroke-miterlimit="8" fill="none" fill-rule="evenodd"/><path d="M1594.5 1668C1594.5 1591.51 1656.51 1529.5 1733 1529.5 1809.49 1529.5 1871.5 1591.51 1871.5 1668 1871.5 1744.49 1809.49 1806.5 1733 1806.5 1656.51 1806.5 1594.5 1744.49 1594.5 1668Z" stroke="#FFFFFF" stroke-width="20.625" stroke-miterlimit="8" fill="#990000" fill-rule="evenodd"/><path d="M1612.5 1668C1612.5 1602 1666.23 1548.5 1732.5 1548.5 1798.77 1548.5 1852.5 1602 1852.5 1668 1852.5 1734 1798.77 1787.5 1732.5 1787.5 1666.23 1787.5 1612.5 1734 1612.5 1668Z" stroke="#FFFFFF" stroke-width="20.625" stroke-miterlimit="8" fill="#990000" fill-rule="evenodd"/><g><g><g><path d="M1738.89 1583.89 1738.89 1583.89C1742.49 1583.85 1746.04 1584.73 1749.2 1586.46 1759.72 1592.14 1763.64 1605.28 1757.96 1615.8 1752.28 1626.32 1739.14 1630.24 1728.62 1624.55 1721.63 1620.78 1717.27 1613.47 1717.26 1605.52 1717.26 1593.58 1726.95 1583.9 1738.89 1583.89M1738.89 1580.12C1724.86 1580.12 1713.49 1591.49 1713.49 1605.52L1713.49 1605.52C1713.37 1616.47 1720.36 1626.23 1730.76 1629.65 1744.07 1634.13 1758.49 1626.97 1762.97 1613.66 1767.44 1600.35 1760.28 1585.93 1746.97 1581.45 1744.37 1580.57 1741.64 1580.13 1738.89 1580.12Z" stroke="#FFFFFF" stroke-width="1.88542" fill="#FFFFFF"/><path d="M1770.58 1723.15 1770.58 1742.7 1774.35 1742.7 1774.35 1722.78C1773.11 1723.02 1771.85 1723.14 1770.58 1723.15Z" stroke="#FFFFFF" stroke-width="1.88542" fill="#FFFFFF"/><path d="M1738.88 1635.39C1717.05 1635.39 1697.19 1644.44 1689.56 1653 1688.65 1654.1 1687.87 1655.32 1687.26 1656.62 1686.87 1657.53 1686.54 1658.47 1686.27 1659.43L1669.17 1724.01C1667.01 1731.52 1671.34 1739.36 1678.84 1741.52 1686.34 1743.69 1694.18 1739.36 1696.35 1731.85 1696.37 1731.78 1696.39 1731.7 1696.41 1731.63L1702.58 1708.57C1702.6 1708.5 1702.62 1708.5 1702.62 1708.57L1702.62 1742.74 1706.39 1742.74 1706.39 1694.35 1708.36 1686.97 1708.36 1686.97C1708.63 1685.97 1708.04 1684.93 1707.03 1684.66 1706.03 1684.39 1704.99 1684.99 1704.72 1685.99L1702.68 1693.57C1702.66 1693.64 1702.65 1693.7 1702.64 1693.76L1692.85 1730.32 1692.81 1730.51C1691.72 1734.79 1688 1737.89 1683.59 1738.2 1677.86 1738.62 1672.87 1734.31 1672.45 1728.57 1672.36 1727.37 1672.48 1726.16 1672.81 1725L1689.92 1660.38C1690.13 1659.62 1690.39 1658.88 1690.7 1658.15 1691.16 1657.19 1691.73 1656.29 1692.4 1655.47 1696.7 1650.65 1707.28 1644.45 1720.94 1641.26L1737.59 1681.37C1730.07 1684.69 1725.22 1692.12 1725.21 1700.34L1725.21 1717.5 1770.46 1717.5C1781.91 1717.5 1791.2 1708.21 1791.2 1696.76L1791.2 1659.24C1791.2 1650.25 1766.74 1635.39 1738.88 1635.39ZM1770.46 1713.73 1728.98 1713.73 1728.98 1700.34C1728.98 1690.97 1736.58 1683.37 1745.95 1683.37L1787.43 1683.37 1787.43 1696.76C1787.43 1706.13 1779.83 1713.73 1770.46 1713.73ZM1745.95 1679.6C1744.34 1679.61 1742.74 1679.8 1741.18 1680.18L1724.69 1640.48C1729.37 1639.61 1734.12 1639.17 1738.88 1639.16 1765.9 1639.16 1787.43 1653.58 1787.43 1659.37L1787.43 1679.6Z" stroke="#FFFFFF" stroke-width="1.88542" fill="#FFFFFF"/></g></g></g><g><g><g><path d="M2046.61 2003.59C2038.01 1996.78 2028.36 1991.42 2018.04 1987.71 2022.72 1986.45 2027.2 1984.54 2031.35 1982.03 2032.51 1981.3 2032.86 1979.75 2032.12 1978.59 2032.01 1978.41 2031.88 1978.25 2031.73 1978.11 2031.65 1978.04 2023.93 1970.61 2023.34 1962.51 2023.64 1956.67 2024.47 1950.86 2025.84 1945.17 2027.95 1935.89 2029.24 1926.44 2029.71 1916.94 2029.71 1904.7 2026.43 1897.86 2018.4 1893.31 2014.87 1891.31 2008.88 1891.99 2005.77 1892.54 2003.6 1889.61 1997.81 1883.43 1985.64 1879.64 1972.52 1876.04 1958.52 1877.84 1946.75 1884.66 1935.93 1891.66 1931.52 1902.55 1931.52 1922.3 1931.52 1932.01 1932.08 1940.53 1932.57 1948.05 1933.29 1954.62 1933.39 1961.23 1932.89 1967.82 1932.11 1972.14 1930.23 1976.18 1927.43 1979.57 1926.61 1980.68 1926.85 1982.24 1927.96 1983.06 1928.05 1983.13 1928.15 1983.19 1928.25 1983.25 1932.36 1985.38 1936.72 1986.98 1941.24 1988 1931.18 1991.67 1921.78 1996.93 1913.39 2003.59 1908.3 2007.77 1905.25 2013.92 1905 2020.5L1905 2063.08 1906.11 2063.83C1917.8 2071.61 1949.44 2075.5 1980.81 2075.5 2012.31 2075.5 2043.56 2071.58 2053.99 2063.75L2055 2063 2055 2020.45C2054.74 2013.89 2051.69 2007.76 2046.61 2003.59ZM2016.26 2013C2019.02 2013 2021.26 2015.24 2021.26 2018 2021.26 2020.76 2019.02 2023 2016.26 2023 2013.5 2023 2011.26 2020.76 2011.26 2018 2011.26 2015.24 2013.5 2013 2016.26 2013ZM2002.82 1986.92C2003.11 1987.07 2003.4 1987.24 2003.7 1987.36L2005.45 1988.08C1997.42 1991.52 1988.74 1993.2 1980 1993 1971.26 1993.2 1962.58 1991.52 1954.54 1988.08L1956.29 1987.36 1957.39 1986.84C1960.55 1985.08 1962.51 1981.74 1962.5 1978.11L1962.5 1973.63C1973.45 1979.45 1986.57 1979.45 1997.51 1973.63L1997.51 1978.1C1997.57 1981.78 1999.6 1985.15 2002.82 1986.92ZM1980 1973C1962.06 1972.98 1947.52 1958.44 1947.5 1940.5L1947.5 1930.41C1958.35 1929.51 1969 1926.94 1979.07 1922.8L1981.65 1921.52C1988.56 1918.51 1994.91 1914.37 2000.44 1909.25 2000.87 1912.19 2002.44 1922.12 2004.79 1926.32 2006.46 1929.37 2008.9 1931.93 2011.87 1933.74L2012.51 1934.18 2012.51 1940.5C2012.48 1958.44 1997.94 1972.98 1980 1973ZM1942.5 1928 1942.5 1940.5C1942.51 1952.27 1948.06 1963.35 1957.48 1970.41L1957.48 1978.11C1957.48 1980.07 1956.32 1981.85 1954.53 1982.65 1947.75 1985.74 1937.81 1982.12 1933.18 1980.06 1935.61 1976.62 1937.21 1972.66 1937.84 1968.5 1938.41 1961.58 1938.31 1954.62 1937.56 1947.72 1937.06 1940.28 1936.52 1931.85 1936.52 1922.3 1936.52 1904.49 1940.27 1894.8 1949.35 1888.93 1959.91 1882.84 1972.47 1881.22 1984.23 1884.43 1998.03 1888.73 2002.37 1896.42 2002.41 1896.48 2002.93 1897.47 2004.06 1898 2005.15 1897.75 2008.4 1897.02 2013.89 1896.5 2015.9 1897.66 2021.33 1900.73 2024.69 1905.02 2024.69 1916.92 2024.21 1926.11 2022.94 1935.24 2020.91 1944.22 2019.41 1950.33 2018.55 1956.59 2018.34 1962.88 2019.19 1968.99 2021.86 1974.71 2026.01 1979.29 2021.43 1981.65 2011.93 1985.68 2005.33 1982.59 2003.6 1981.77 2002.5 1980.02 2002.5 1978.11L2002.5 1970.43C2011.93 1963.37 2017.49 1952.28 2017.5 1940.5L2017.47 1933C2017.48 1932.38 2017.26 1931.78 2016.85 1931.32 2016.18 1930.65 2015.44 1930.06 2014.63 1929.57 2012.33 1928.19 2010.44 1926.23 2009.15 1923.87 2007.23 1918.93 2005.97 1913.77 2005.39 1908.5 2004.98 1905.82 2002.47 1903.98 1999.78 1904.39 1998.8 1904.54 1997.88 1904.99 1997.15 1905.67 1991.89 1910.38 1985.9 1914.22 1979.42 1917.04L1976.92 1918.29C1966.77 1922.49 1955.97 1924.93 1945 1925.5 1943.62 1925.5 1942.5 1926.62 1942.5 1928ZM2013.75 1991.42 2013.75 2008.19C2013.75 2008.24 2013.78 2008.29 2013.78 2008.34 2008.43 2009.71 2005.2 2015.15 2006.56 2020.5 2007.92 2025.86 2013.37 2029.09 2018.72 2027.73 2024.07 2026.36 2027.31 2020.92 2025.94 2015.57 2025.04 2012.02 2022.27 2009.25 2018.72 2008.34 2018.72 2008.29 2018.75 2008.24 2018.75 2008.19L2018.75 1993.4C2027.63 1996.77 2035.93 2001.49 2043.36 2007.4 2047.36 2010.6 2049.79 2015.38 2050 2020.5L2050 2060.44C2028.75 2074.04 1933.54 2073.98 1910 2060.36L1910 2020.55C1910.2 2015.42 1912.61 2010.62 1916.62 2007.4 1924.06 2001.49 1932.37 1996.77 1941.25 1993.4L1941.25 2008.06C1932.1 2008.72 1925.01 2016.33 1925 2025.5L1925 2044.25C1925.01 2047.73 1927.41 2050.75 1930.8 2051.54 1932.06 2053.18 1934.42 2053.49 1936.06 2052.22 1937.7 2050.96 1938.01 2048.61 1936.75 2046.97 1935.48 2045.32 1933.13 2045.02 1931.49 2046.28 1931.43 2046.32 1931.38 2046.37 1931.32 2046.41 1930.52 2045.99 1930.01 2045.16 1930 2044.25L1930 2025.5C1930.01 2018.6 1935.6 2013.01 1942.5 2013L1945 2013C1951.9 2013.01 1957.49 2018.6 1957.5 2025.5L1957.5 2044.25C1957.49 2045.16 1956.98 2045.99 1956.18 2046.41 1954.61 2045.06 1952.24 2045.23 1950.89 2046.8 1949.54 2048.37 1949.71 2050.74 1951.28 2052.09 1952.85 2053.44 1955.22 2053.27 1956.57 2051.7 1956.61 2051.65 1956.66 2051.59 1956.7 2051.54 1960.09 2050.75 1962.49 2047.73 1962.5 2044.25L1962.5 2025.5C1962.49 2016.33 1955.4 2008.72 1946.25 2008.06L1946.25 1991.41 1948.67 1990.5C1955.44 1995.15 1967.25 1998 1980 1998 1992.75 1998 2004.56 1995.15 2011.33 1990.5Z" fill="#990000"/><path d="M2018.76 2018C2018.76 2019.38 2017.64 2020.5 2016.26 2020.5 2014.88 2020.5 2013.76 2019.38 2013.76 2018 2013.76 2016.62 2014.88 2015.5 2016.26 2015.5 2017.64 2015.5 2018.76 2016.62 2018.76 2018Z" fill="#990000"/></g></g></g><g><g><g><path d="M1937.6 1406.44C1937.5 1406.44 1937.41 1406.44 1937.31 1406.44 1935.78 1406.32 1934.52 1405.19 1934.22 1403.69L1904.54 1255.8C1904.54 1255.73 1904.5 1255.73 1904.48 1255.8L1881.17 1323.88C1880.69 1325.27 1879.38 1326.21 1877.91 1326.2L1816.5 1326.2 1816.5 1319.33 1875.45 1319.33 1902.13 1241.42C1902.74 1239.62 1904.69 1238.66 1906.49 1239.28 1907.65 1239.67 1908.51 1240.65 1908.75 1241.85L1938.6 1390.55C1938.6 1390.61 1938.64 1390.61 1938.67 1390.55L1982.09 1276.72C1982.6 1275.33 1983.97 1274.43 1985.45 1274.52 1986.93 1274.58 1988.2 1275.58 1988.61 1277.01L2010.16 1352.38C2010.16 1352.41 2010.2 1352.42 2010.22 1352.38L2040.22 1320.41C2040.87 1319.72 2041.77 1319.33 2042.73 1319.33L2091.5 1319.33 2091.5 1326.2 2044.21 1326.2 2011.06 1361.56C2009.77 1362.94 2007.59 1363.02 2006.2 1361.72 2005.75 1361.29 2005.42 1360.75 2005.25 1360.15L1984.87 1288.92C1984.87 1288.87 1984.82 1288.86 1984.8 1288.92L1940.81 1404.23C1940.3 1405.56 1939.02 1406.44 1937.6 1406.44Z" fill="#990000"/></g></g></g><g><g><g><path d="M68.7499 32.8125 42.1875 32.8125 42.1875 6.24999 32.8125 6.24999 32.8125 32.8125 6.24999 32.8125 6.24999 42.1875 32.8125 42.1875 32.8125 68.7499 42.1875 68.7499 42.1875 42.1875 68.7499 42.1875Z" fill="#FFFFFF" transform="matrix(1.01333 0 0 1 2583 2111)"/></g></g></g><g><g><g><path d="M2286.49 1829.65C2290.41 1829.65 2293.58 1826.47 2293.58 1822.55 2293.58 1818.63 2290.41 1815.46 2286.49 1815.46 2282.57 1815.46 2279.4 1818.63 2279.4 1822.55 2279.4 1826.47 2282.57 1829.65 2286.49 1829.65ZM2286.49 1820.19C2287.8 1820.19 2288.85 1821.25 2288.85 1822.55 2288.85 1823.86 2287.8 1824.92 2286.49 1824.92 2285.18 1824.92 2284.12 1823.86 2284.12 1822.55 2284.12 1821.25 2285.18 1820.19 2286.49 1820.19Z" fill="#990000"/><path d="M2331.42 1843.83C2336.64 1843.83 2340.88 1839.6 2340.88 1834.38 2340.88 1829.15 2336.64 1824.92 2331.42 1824.92 2326.19 1824.92 2321.96 1829.15 2321.96 1834.38 2321.96 1839.6 2326.19 1843.83 2331.42 1843.83ZM2331.42 1829.65C2334.03 1829.65 2336.15 1831.76 2336.15 1834.38 2336.15 1836.99 2334.03 1839.1 2331.42 1839.1 2328.8 1839.1 2326.69 1836.99 2326.69 1834.38 2326.69 1831.76 2328.8 1829.65 2331.42 1829.65Z" fill="#990000"/><path d="M2293.58 1872.21C2301.42 1872.21 2307.77 1865.86 2307.77 1858.02 2307.77 1850.19 2301.42 1843.83 2293.58 1843.83 2285.75 1843.83 2279.4 1850.19 2279.4 1858.02 2279.41 1865.85 2285.75 1872.2 2293.58 1872.21ZM2293.58 1848.56C2298.81 1848.56 2303.04 1852.8 2303.04 1858.02 2303.04 1863.24 2298.81 1867.48 2293.58 1867.48 2288.36 1867.48 2284.12 1863.24 2284.12 1858.02 2284.12 1852.8 2288.36 1848.56 2293.58 1848.56Z" fill="#990000"/><path d="M2326.69 1872.21C2330.61 1872.21 2333.78 1869.03 2333.78 1865.11 2333.78 1861.2 2330.61 1858.02 2326.69 1858.02 2322.77 1858.02 2319.59 1861.2 2319.59 1865.11 2319.59 1869.03 2322.77 1872.21 2326.69 1872.21ZM2326.69 1862.75C2327.99 1862.75 2329.05 1863.81 2329.05 1865.11 2329.05 1866.42 2327.99 1867.48 2326.69 1867.48 2325.38 1867.48 2324.32 1866.42 2324.32 1865.11 2324.32 1863.81 2325.38 1862.75 2326.69 1862.75Z" fill="#990000"/><path d="M2376.16 1883.13C2375.8 1882.24 2374.94 1881.67 2373.98 1881.67L2251.02 1881.67C2249.71 1881.67 2248.66 1882.73 2248.66 1884.03 2248.66 1884.66 2248.91 1885.26 2249.35 1885.7L2254.65 1891.01C2256.88 1893.22 2258.12 1896.23 2258.11 1899.37L2258.11 2011.72C2258.12 2018.25 2263.41 2023.53 2269.94 2023.54L2355.06 2023.54C2361.59 2023.53 2366.88 2018.25 2366.89 2011.72L2366.89 1899.37C2366.88 1896.23 2368.12 1893.22 2370.35 1891.01L2375.65 1885.7C2376.33 1885.03 2376.53 1884.01 2376.16 1883.13ZM2355.06 2018.81 2269.94 2018.81C2266.02 2018.81 2262.84 2015.64 2262.84 2011.72L2262.84 1912.39C2277.69 1912.47 2292.47 1910.48 2306.78 1906.49 2314 1904.28 2321.5 1903.09 2329.05 1902.95 2338.77 1902.85 2348.42 1904.63 2357.48 1908.18 2359.01 1908.77 2360.57 1909.28 2362.16 1909.7L2362.16 2011.72C2362.16 2015.64 2358.98 2018.81 2355.06 2018.81ZM2367 1887.67C2363.9 1890.77 2362.16 1894.98 2362.16 1899.37L2362.16 1904.8C2361.27 1904.52 2360.24 1904.15 2359.08 1903.74 2349.51 1900.01 2339.32 1898.14 2329.05 1898.22 2321.09 1898.35 2313.2 1899.59 2305.58 1901.91 2291.68 1905.82 2277.29 1907.76 2262.84 1907.66L2262.84 1899.37C2262.84 1894.98 2261.1 1890.77 2258 1887.67L2256.77 1886.44C2256.75 1886.41 2256.75 1886.4 2256.79 1886.4L2368.21 1886.4C2368.24 1886.4 2368.25 1886.41 2368.23 1886.44Z" fill="#990000"/><path d="M2317.23 1921.86 2345.6 1921.86 2345.6 1926.59 2317.23 1926.59Z" fill="#990000"/><path d="M2317.23 1940.78 2345.6 1940.78 2345.6 1945.51 2317.23 1945.51Z" fill="#990000"/><path d="M2317.23 1959.7 2345.6 1959.7 2345.6 1964.43 2317.23 1964.43Z" fill="#990000"/><path d="M2317.23 1978.61 2345.6 1978.61 2345.6 1983.34 2317.23 1983.34Z" fill="#990000"/><path d="M2317.23 1997.53 2345.6 1997.53 2345.6 2002.26 2317.23 2002.26Z" fill="#990000"/></g></g></g><g><g><g><path d="M2611.02 1872.91 2645.43 1907.19 2610.98 1941.64 2619.59 1975.97 2585.14 1941.64 2619.59 1907.19 2585.14 1872.87 2599.02 1853.5C2555.4 1796.03 2494.15 1842.79 2494.15 1886.7 2494.15 1958.88 2611 2048.23 2611 2048.23 2611 2048.23 2727.88 1958.87 2727.88 1886.7 2727.88 1838.58 2654.33 1787.04 2611.02 1872.91Z" fill="#990000"/></g></g></g><g><g><g><path d="M2006.06 2120.08 2102.94 2120.08 2102.94 1990.92 2006.06 1990.92ZM2009.29 1994.15 2099.71 1994.15 2099.71 2116.85 2009.29 2116.85Z" fill="#990000"/><path d="M2022.21 2015.14 2086.79 2015.14 2086.79 2018.36 2022.21 2018.36Z" fill="#990000"/><path d="M2022.21 2028.05 2086.79 2028.05 2086.79 2031.28 2022.21 2031.28Z" fill="#990000"/><path d="M2022.21 2040.97 2086.79 2040.97 2086.79 2044.2 2022.21 2044.2Z" fill="#990000"/><path d="M2022.21 2053.89 2054.5 2053.89 2054.5 2057.11 2022.21 2057.11Z" fill="#990000"/><path d="M2054.5 2086.18 2086.79 2086.18 2086.79 2089.41 2054.5 2089.41Z" fill="#990000"/><path d="M2041.25 2076.96 2033.11 2085.1 2024.96 2076.96 2022.68 2079.25 2030.82 2087.39 2022.68 2095.53 2024.96 2097.81 2033.11 2089.67 2041.25 2097.81 2043.53 2095.53 2035.39 2087.39 2043.53 2079.25 2041.25 2076.96Z" fill="#990000"/></g></g></g><g><g><g><path d="M2611.96 1490C2627.04 1478.1 2641.42 1465.35 2655.03 1451.81 2674.78 1433 2692.23 1411.93 2707.04 1389.04 2720.79 1366.9 2733.93 1338.17 2724.88 1311.9 2717.56 1290.18 2697.25 1271.72 2673.91 1269.48 2644.41 1266.56 2623.07 1291.52 2611 1315.41 2599.97 1293.55 2581.71 1271 2555.35 1269.35 2531.94 1267.9 2510.14 1284.37 2500.07 1304.82 2487.46 1330.5 2497.73 1359.38 2511 1382.44 2524.75 1406.5 2543.04 1427.64 2562.36 1447.2 2577.59 1462.78 2593.84 1477.33 2611 1490.76ZM2556 1373.13 2566.31 1342.19 2572.43 1323.8C2574.01 1319.02 2576.45 1312.63 2583.05 1315.38 2587.04 1317.06 2587.28 1321.18 2587.97 1324.79L2590.82 1340.02 2599.07 1384.02 2604.54 1413.24 2624.48 1360.51 2628.88 1348.89C2630.15 1345.45 2631.45 1342.02 2635.75 1341.64 2641.22 1341.09 2642.83 1345.76 2644.03 1349.89L2648.26 1364.39 2656.65 1393.23 2664.93 1384.13C2667.58 1380.66 2670.57 1377.46 2673.84 1374.57 2677.28 1372.16 2683.63 1373.26 2687.59 1373.26L2700.38 1373.26C2697.83 1377.83 2695.01 1382.44 2691.95 1387.01L2680.78 1387.01C2673.46 1395.09 2666.45 1403.68 2658.68 1411.35 2656.24 1414.26 2651.91 1414.65 2648.99 1412.21 2648.42 1411.73 2647.93 1411.16 2647.54 1410.53 2646.79 1409.05 2646.25 1407.47 2645.93 1405.85L2640.18 1386.22 2635.51 1370.13C2626.74 1393.27 2618.32 1416.44 2609.28 1439.47 2608.78 1441.35 2607.68 1443.01 2606.15 1444.21 2603.02 1446.36 2598.74 1445.57 2596.59 1442.44 2596.04 1441.64 2595.67 1440.73 2595.5 1439.78 2594.71 1436.62 2594.29 1433.32 2593.68 1430.15L2584.98 1383.75 2578.48 1349.06 2568.79 1378.18C2567.31 1382.51 2566.14 1386.74 2560.57 1387.01 2555.52 1387.25 2550.43 1387.01 2545.41 1387.01L2529.94 1387.01C2526.92 1382.44 2524.07 1377.83 2521.52 1373.26Z" fill="#4EA72E"/></g></g></g><rect x="1871.5" y="1664.5" width="445" height="17.0002" stroke="#990000" stroke-width="6.875" stroke-miterlimit="8" fill="#990000"/><path d="M2316.5 1664.5 2542.51 1664.5C2581.89 1664.5 2613.82 1696.43 2613.82 1735.81L2613.82 1786.75 2646.5 1786.75 2605.75 1827.5 2565 1786.75 2597.68 1786.75 2597.68 1735.81C2597.68 1705.34 2572.98 1680.64 2542.51 1680.64L2316.5 1680.64Z" stroke="#990000" stroke-width="6.875" stroke-miterlimit="8" fill="#990000" fill-rule="evenodd"/><path d="M0 330 0 110.378C-2.10067e-14 68.8184 33.6906 35.1278 75.25 35.1278L129 35.1275 129 0 172 43 129 86.0003 129 50.8725 75.25 50.8725C42.3863 50.8725 15.745 77.5138 15.745 110.377L15.745 330Z" stroke="#990000" stroke-width="6.875" stroke-miterlimit="8" fill="#990000" fill-rule="evenodd" transform="matrix(-6.12323e-17 -1 -1 6.12323e-17 2652.5 1680.5)"/><path d="M1852.5 2008.5C1852.5 1924.55 1920.55 1856.5 2004.5 1856.5 2088.45 1856.5 2156.5 1924.55 2156.5 2008.5 2156.5 2092.45 2088.45 2160.5 2004.5 2160.5 1920.55 2160.5 1852.5 2092.45 1852.5 2008.5Z" stroke="#990000" stroke-width="6.875" stroke-miterlimit="8" fill="none" fill-rule="evenodd"/><path d="M2176.5 1935C2176.5 1850.78 2244.55 1782.5 2328.5 1782.5 2412.45 1782.5 2480.5 1850.78 2480.5 1935 2480.5 2019.22 2412.45 2087.5 2328.5 2087.5 2244.55 2087.5 2176.5 2019.22 2176.5 1935Z" stroke="#990000" stroke-width="6.875" stroke-miterlimit="8" fill="none" fill-rule="evenodd"/><path d="M1802.5 1326.5C1802.5 1242.55 1870.78 1174.5 1955 1174.5 2039.22 1174.5 2107.5 1242.55 2107.5 1326.5 2107.5 1410.45 2039.22 1478.5 1955 1478.5 1870.78 1478.5 1802.5 1410.45 1802.5 1326.5Z" stroke="#990000" stroke-width="6.875" stroke-miterlimit="8" fill="none" fill-rule="evenodd"/><path d="M1954.5 1478.5 1954.5 1661.67" stroke="#990000" stroke-width="6.875" stroke-miterlimit="8" stroke-dasharray="6.875 6.875" fill="none" fill-rule="evenodd"/><path d="M2004.5 1680.5 2004.5 1857.71" stroke="#990000" stroke-width="6.875" stroke-miterlimit="8" stroke-dasharray="6.875 6.875" fill="none" fill-rule="evenodd"/><path d="M2328.5 1680.5 2328.5 1783.3" stroke="#990000" stroke-width="6.875" stroke-miterlimit="8" stroke-dasharray="6.875 6.875" fill="none" fill-rule="evenodd"/><g><g><g><path d="M2322.75 1388 2243.53 1388 2270.13 1323.69C2270.51 1322.78 2271.4 1322.18 2272.38 1322.19L2388.71 1322.19C2390.06 1322.19 2391.15 1323.28 2391.15 1324.63 2391.15 1324.95 2391.08 1325.28 2390.95 1325.58L2381.45 1348.05 2385.94 1349.95 2395.44 1327.47C2397.02 1323.76 2395.28 1319.46 2391.56 1317.89 2390.66 1317.51 2389.69 1317.31 2388.71 1317.31L2272.38 1317.31C2269.42 1317.3 2266.75 1319.09 2265.63 1321.83L2236.22 1392.88 2322.75 1392.88Z" fill="#990000"/><path d="M2387.47 1362.28C2374.66 1349.4 2353.83 1349.36 2340.96 1362.17 2328.71 1374.36 2327.98 1393.95 2339.3 1407.01L2335.22 1411.09C2331.91 1409.31 2327.83 1409.89 2325.16 1412.54L2308.19 1429.51C2304.85 1432.84 2304.85 1438.24 2308.19 1441.57 2311.52 1444.9 2316.92 1444.9 2320.25 1441.57L2337.22 1424.6C2339.87 1421.93 2340.45 1417.84 2338.66 1414.54L2342.74 1410.45C2356.47 1422.34 2377.24 1420.85 2389.13 1407.12 2400.44 1394.06 2399.72 1374.47 2387.47 1362.28ZM2344.38 1365.73C2352.47 1357.66 2364.64 1355.3 2375.16 1359.76L2362.61 1388 2336.3 1388C2335.56 1379.75 2338.52 1371.59 2344.38 1365.73ZM2333.77 1421.15 2316.8 1438.12C2315.38 1439.55 2313.06 1439.55 2311.63 1438.12 2310.2 1436.69 2310.2 1434.38 2311.63 1432.95L2328.6 1415.98C2330.03 1414.55 2332.35 1414.55 2333.77 1415.98 2335.2 1417.4 2335.2 1419.72 2333.77 1421.15ZM2384.02 1405.37C2373.11 1416.32 2355.4 1416.35 2344.45 1405.44 2340.96 1401.96 2338.45 1397.63 2337.18 1392.88L2365.77 1392.88 2379.47 1362.05C2392.45 1370.46 2396.15 1387.8 2387.74 1400.78 2386.67 1402.44 2385.42 1403.97 2384.02 1405.37Z" fill="#990000"/><path d="M2279.89 1278.31C2280.36 1278.31 2280.81 1278.44 2281.2 1278.69L2305.62 1294.23C2306.79 1294.98 2308.15 1295.38 2309.54 1295.38L2371.5 1295.38C2372.85 1295.38 2373.94 1296.47 2373.94 1297.81L2373.94 1312.44 2378.81 1312.44 2378.81 1297.81C2378.81 1293.77 2375.54 1290.5 2371.5 1290.5L2309.54 1290.5C2309.08 1290.5 2308.63 1290.37 2308.24 1290.12L2283.82 1274.58C2282.65 1273.83 2281.28 1273.44 2279.89 1273.44L2237.44 1273.44C2233.4 1273.44 2230.12 1276.71 2230.12 1280.75L2230.12 1392.88 2235 1392.88 2235 1280.75C2235 1279.4 2236.09 1278.31 2237.44 1278.31Z" fill="#990000"/></g></g></g><path d="M2155.5 1358.5C2155.5 1274.55 2223.55 1206.5 2307.5 1206.5 2391.45 1206.5 2459.5 1274.55 2459.5 1358.5 2459.5 1442.45 2391.45 1510.5 2307.5 1510.5 2223.55 1510.5 2155.5 1442.45 2155.5 1358.5Z" stroke="#990000" stroke-width="6.875" stroke-miterlimit="8" fill="none" fill-rule="evenodd"/><path d="M2300.5 1514.5 2300.5 1657.41" stroke="#990000" stroke-width="6.875" stroke-miterlimit="8" stroke-dasharray="6.875 6.875" fill="none" fill-rule="evenodd"/></g></svg>