<svg width="1314" height="1313" xmlns="http://www.w3.org/2000/svg" xmlns:xlink="http://www.w3.org/1999/xlink" xml:space="preserve" overflow="hidden"><g transform="translate(-2956 -223)"><g><g><g><path d="M257.893 212.83 244.232 199.17 225.313 218.096 206.393 199.17 192.732 212.83 211.659 231.75 192.732 250.67 206.393 264.33 225.313 245.404 244.232 264.33 257.893 250.67 238.966 231.75 257.893 212.83Z" fill="#990000" transform="matrix(1 0 0 1.00162 3355 488)"/><path d="M244.232 276.42 225.313 295.346 206.393 276.42 192.732 290.08 211.659 309 192.732 327.92 206.393 341.58 225.313 322.654 244.232 341.58 257.893 327.92 238.966 309 257.893 290.08 244.232 276.42Z" fill="#990000" transform="matrix(1 0 0 1.00162 3355 488)"/><path d="M469.938 527.875 148.063 527.875 148.063 128.75 218.875 128.75 218.875 167.375 399.125 167.375 399.125 128.75 469.938 128.75ZM309 77.25C319.666 77.25 328.313 85.8962 328.313 96.5625 328.313 107.229 319.666 115.875 309 115.875 298.334 115.875 289.688 107.229 289.688 96.5625 289.512 86.072 297.873 77.4258 308.364 77.25 308.576 77.2461 308.788 77.2461 309 77.25ZM482.813 90.125 373.375 90.125 373.375 77.25C373.375 63.0287 361.846 51.5 347.625 51.5L270.375 51.5C256.154 51.5 244.625 63.0287 244.625 77.25L244.625 90.125 135.188 90.125C120.966 90.125 109.438 101.654 109.438 115.875L109.438 540.75C109.438 554.971 120.966 566.5 135.188 566.5L482.813 566.5C497.034 566.5 508.563 554.971 508.563 540.75L508.563 115.875C508.563 101.654 497.034 90.125 482.813 90.125Z" fill="#990000" transform="matrix(1 0 0 1.00162 3355 488)"/><path d="M321.875 218.875 431.313 218.875 431.313 244.625 321.875 244.625Z" fill="#990000" transform="matrix(1 0 0 1.00162 3355 488)"/><path d="M321.875 296.125 431.313 296.125 431.313 321.875 321.875 321.875Z" fill="#990000" transform="matrix(1 0 0 1.00162 3355 488)"/><path d="M321.875 373.375 431.313 373.375 431.313 399.125 321.875 399.125Z" fill="#990000" transform="matrix(1 0 0 1.00162 3355 488)"/><path d="M321.875 450.625 431.313 450.625 431.313 476.375 321.875 476.375Z" fill="#990000" transform="matrix(1 0 0 1.00162 3355 488)"/><path d="M202.781 363.719 247.844 363.719 247.844 408.781 202.781 408.781Z" fill="#990000" transform="matrix(1 0 0 1.00162 3355 488)"/><path d="M202.781 440.969 247.844 440.969 247.844 486.031 202.781 486.031Z" fill="#990000" transform="matrix(1 0 0 1.00162 3355 488)"/></g></g></g><path d="M2963 446.505C2963 326.932 3059.93 230 3179.5 230L4046.5 230C4166.07 230 4263 326.932 4263 446.505L4263 1312.5C4263 1432.07 4166.07 1529 4046.5 1529L3179.5 1529C3059.93 1529 2963 1432.07 2963 1312.5Z" stroke="#990000" stroke-width="13.75" stroke-miterlimit="8" fill="none" fill-rule="evenodd"/><path d="M3523.5 412C3523.5 335.509 3585.51 273.5 3662 273.5 3738.49 273.5 3800.5 335.509 3800.5 412 3800.5 488.491 3738.49 550.5 3662 550.5 3585.51 550.5 3523.5 488.491 3523.5 412Z" stroke="#FFFFFF" stroke-width="20.625" stroke-miterlimit="8" fill="#990000" fill-rule="evenodd"/><path d="M3542.5 412C3542.5 346.002 3596 292.5 3662 292.5 3728 292.5 3781.5 346.002 3781.5 412 3781.5 477.998 3728 531.5 3662 531.5 3596 531.5 3542.5 477.998 3542.5 412Z" stroke="#FFFFFF" stroke-width="20.625" stroke-miterlimit="8" fill="#990000" fill-rule="evenodd"/><g><g><g><path d="M90.8904 12.8944 90.8904 12.8944C94.4906 12.8474 98.0418 13.7314 101.2 15.4604 111.719 21.1427 115.641 34.2769 109.958 44.7962 104.276 55.3157 91.1419 59.237 80.6224 53.5547 73.6282 49.7767 69.2673 42.4694 69.2627 34.5201 69.2648 22.5768 78.947 12.8954 90.8904 12.8944M90.8904 9.12354C76.8632 9.1225 65.4911 20.493 65.49 34.5201L65.49 34.5201C65.3725 45.4674 72.3576 55.2305 82.7567 58.6535 96.0675 63.1315 110.488 55.9711 114.966 42.6602 119.444 29.3496 112.284 14.9289 98.973 10.4508 96.3688 9.57474 93.6399 9.1265 90.8923 9.12354Z" stroke="#FFFFFF" stroke-width="1.88542" fill="#FFFFFF" transform="matrix(1.00552 0 0 1 3577 315)"/><path d="M122.584 152.153 122.584 171.705 126.355 171.705 126.355 151.776C125.112 152.017 123.85 152.144 122.584 152.153Z" stroke="#FFFFFF" stroke-width="1.88542" fill="#FFFFFF" transform="matrix(1.00552 0 0 1 3577 315)"/><path d="M90.8772 64.387C69.0516 64.387 49.1925 73.437 41.5622 81.9968 40.6455 83.1013 39.8725 84.3178 39.262 85.6169 38.87 86.5302 38.54 87.4685 38.274 88.4261L21.1732 153.015C19.0086 160.518 23.3366 168.356 30.8404 170.521 38.3439 172.686 46.1816 168.358 48.3465 160.854 48.3681 160.778 48.3895 160.702 48.41 160.626L54.581 137.573C54.6017 137.496 54.6187 137.498 54.6187 137.573L54.6187 171.737 58.3895 171.737 58.3895 123.348 60.3636 115.972 60.3636 115.972C60.6337 114.966 60.0374 113.932 59.0315 113.662 58.0256 113.391 56.9911 113.988 56.7209 114.994L54.6771 122.575C54.6621 122.635 54.647 122.695 54.6375 122.763L44.8541 159.318 44.807 159.506C43.7212 163.792 40.005 166.894 35.5948 167.197 29.859 167.616 24.8698 163.306 24.4509 157.57 24.3632 156.368 24.4846 155.16 24.8102 153.999L41.9166 89.382C42.1321 88.623 42.3946 87.878 42.7028 87.1516 43.1593 86.1932 43.7289 85.2931 44.3997 84.4705 48.7004 79.6495 59.2757 73.4465 72.9355 70.2582L89.5894 110.371C82.0723 113.686 77.2179 121.124 77.2079 129.34L77.2079 146.497 122.458 146.497C133.912 146.497 143.198 137.212 143.198 125.757L143.198 88.2376C143.198 79.2517 118.744 64.387 90.8772 64.387ZM122.458 142.726 80.9787 142.726 80.9787 129.34C80.9787 119.968 88.5758 112.371 97.9475 112.371L139.427 112.371 139.427 125.757C139.427 135.129 131.83 142.726 122.458 142.726ZM97.9475 108.6C96.3398 108.606 94.7383 108.8 93.1755 109.177L76.6951 69.4833C81.3726 68.6143 86.1195 68.1726 90.8772 68.1635 117.899 68.1635 139.427 82.5832 139.427 88.3696L139.427 108.6Z" stroke="#FFFFFF" stroke-width="1.88542" fill="#FFFFFF" transform="matrix(1.00552 0 0 1 3577 315)"/></g></g></g><g><g><g><path d="M186.61 145.595C178.013 138.782 168.363 133.415 158.04 129.707 162.721 128.454 167.201 126.544 171.347 124.035 172.514 123.297 172.861 121.752 172.123 120.585 172.013 120.411 171.882 120.252 171.732 120.11 171.655 120.037 163.932 112.61 163.345 104.512 163.635 98.6662 164.472 92.8602 165.845 87.17 167.946 77.8882 169.24 68.4422 169.712 58.9375 169.712 46.705 166.432 39.8575 158.395 35.3075 154.87 33.3075 148.875 33.9925 145.775 34.535 143.605 31.615 137.81 25.4275 125.635 21.6375 112.524 18.035 98.5155 19.8443 86.75 26.66 75.9325 33.66 71.52 44.555 71.52 64.3 71.52 74.0125 72.08 82.5275 72.575 90.05 73.2862 96.6155 73.3925 103.232 72.8925 109.817 72.1072 114.137 70.2265 118.183 67.43 121.567 66.6105 122.679 66.847 124.244 67.9582 125.063 68.0502 125.131 68.147 125.193 68.2475 125.247 72.356 127.382 76.7217 128.979 81.2375 130 71.1792 133.669 61.7772 138.934 53.3925 145.592 48.3027 149.766 45.247 155.922 45 162.5L45 205.085 46.1125 205.835C57.7975 213.61 89.4375 217.5 120.815 217.5 152.315 217.5 183.565 213.58 193.99 205.75L195 205 195 162.447C194.74 155.889 191.686 149.756 186.61 145.595ZM156.262 155C159.024 155 161.262 157.238 161.262 160 161.262 162.761 159.024 165 156.262 165 153.501 165 151.262 162.761 151.262 160 151.262 157.238 153.501 155 156.262 155ZM142.82 128.922C143.11 129.075 143.395 129.237 143.702 129.365L145.452 130.082C137.418 133.524 128.738 135.2 120 135 111.259 135.201 102.576 133.523 94.54 130.077L96.29 129.365 97.39 128.845C100.553 127.078 102.509 123.735 102.5 120.112L102.5 115.632C113.446 121.449 126.566 121.449 137.512 115.632L137.512 120.102C137.57 123.782 139.596 127.148 142.82 128.922ZM120 115C102.059 114.981 87.5192 100.441 87.5 82.5L87.5 72.41C98.3505 71.5097 108.997 68.9447 119.067 64.805L121.647 63.515C128.558 60.513 134.912 56.3665 140.442 51.25 140.87 54.19 142.442 64.1175 144.792 68.3225 146.462 71.371 148.902 73.9292 151.867 75.7425L152.505 76.1775 152.505 82.5C152.484 100.443 137.943 114.982 120 115ZM82.5 70 82.5 82.5C82.5107 94.2732 88.061 105.355 97.4825 112.415L97.4825 120.112C97.4802 122.074 96.3235 123.851 94.53 124.647 87.7525 127.737 77.81 124.117 73.1775 122.06 75.6115 118.622 77.2097 114.664 77.845 110.5 78.4072 103.579 78.3135 96.6207 77.565 89.7175 77.065 82.28 76.52 73.8525 76.52 64.305 76.52 46.4925 80.27 36.805 89.3475 30.935 99.9092 24.842 112.468 23.2219 124.23 26.435 138.032 30.735 142.372 38.42 142.405 38.48 142.931 39.4747 144.056 39.9955 145.155 39.7525 148.405 39.0225 153.885 38.5025 155.905 39.6575 161.327 42.7275 164.687 47.0225 164.687 58.925 164.208 68.1132 162.945 77.244 160.912 86.2175 159.413 92.332 158.551 98.5855 158.34 104.877 159.19 110.993 161.861 116.71 166.005 121.287 161.435 123.65 151.93 127.682 145.327 124.587 143.6 123.766 142.5 122.025 142.5 120.112L142.5 112.432C151.933 105.372 157.49 94.2822 157.5 82.5L157.472 75C157.481 74.3825 157.258 73.784 156.847 73.3225 156.183 72.6497 155.438 72.062 154.63 71.5725 152.329 70.1937 150.439 68.226 149.152 65.8725 147.234 60.934 145.968 55.7662 145.387 50.5 144.975 47.817 142.466 45.976 139.783 46.388 138.797 46.5395 137.88 46.9875 137.155 47.6725 131.886 52.3832 125.898 56.2207 119.417 59.04L116.917 60.29C106.767 64.4947 95.9722 66.9332 85 67.5 83.6192 67.5 82.5 68.6192 82.5 70ZM153.75 133.422 153.75 150.187C153.75 150.245 153.78 150.29 153.782 150.345 148.43 151.708 145.197 157.152 146.561 162.504 147.924 167.856 153.368 171.089 158.72 169.726 164.072 168.362 167.305 162.918 165.942 157.567 165.038 154.019 162.268 151.249 158.72 150.345 158.72 150.29 158.75 150.242 158.75 150.187L158.75 135.402C167.628 138.77 175.931 143.492 183.362 149.402 187.365 152.603 189.785 157.38 190 162.5L190 202.44C168.75 216.037 73.545 215.977 50 202.357L50 162.552C50.1972 157.418 52.6112 152.622 56.6175 149.405 64.0557 143.494 72.3652 138.771 81.25 135.405L81.25 150.065C72.1012 150.72 65.0107 158.328 65 167.5L65 186.25C65.008 189.731 67.4097 192.748 70.8 193.537 72.0625 195.179 74.417 195.486 76.0587 194.224 77.7005 192.961 78.0077 190.607 76.7452 188.965 75.4827 187.324 73.1282 187.016 71.4865 188.279 71.4305 188.322 71.376 188.366 71.3225 188.412 70.518 187.989 70.0102 187.159 70 186.25L70 167.5C70.0082 160.6 75.5997 155.008 82.5 155L85 155C91.9002 155.008 97.4917 160.6 97.5 167.5L97.5 186.25C97.4907 187.158 96.984 187.989 96.18 188.412 94.612 187.059 92.2442 187.233 90.891 188.801 89.5377 190.369 89.712 192.737 91.2797 194.09 92.8477 195.443 95.2157 195.269 96.5687 193.701 96.615 193.648 96.6595 193.593 96.7025 193.537 100.092 192.747 102.492 189.73 102.5 186.25L102.5 167.5C102.491 158.327 95.3997 150.718 86.25 150.062L86.25 133.412 88.67 132.5C95.44 137.147 107.25 140 120 140 132.75 140 144.557 137.147 151.327 132.5Z" fill="#990000" transform="matrix(1 0 0 1.00417 3355 1251)"/><path d="M158.762 160C158.762 161.381 157.643 162.5 156.262 162.5 154.882 162.5 153.762 161.381 153.762 160 153.762 158.619 154.882 157.5 156.262 157.5 157.643 157.5 158.762 158.619 158.762 160Z" fill="#990000" transform="matrix(1 0 0 1.00417 3355 1251)"/></g></g></g><g><g><g><path d="M3146.6 651.438C3146.5 651.438 3146.41 651.438 3146.31 651.438 3144.78 651.315 3143.52 650.193 3143.22 648.688L3113.54 500.8C3113.54 500.731 3113.5 500.728 3113.48 500.8L3090.17 568.88C3089.69 570.271 3088.38 571.205 3086.91 571.204L3025.5 571.204 3025.5 564.329 3084.45 564.329 3111.13 486.418C3111.74 484.621 3113.69 483.661 3115.49 484.275 3116.65 484.67 3117.51 485.653 3117.75 486.854L3147.6 635.547C3147.6 635.609 3147.64 635.612 3147.67 635.547L3191.09 521.724C3191.6 520.326 3192.97 519.427 3194.45 519.517 3195.93 519.58 3197.2 520.583 3197.61 522.006L3219.16 597.38C3219.16 597.411 3219.2 597.418 3219.22 597.38L3249.22 565.411C3249.87 564.718 3250.77 564.325 3251.73 564.325L3300.5 564.325 3300.5 571.2 3253.21 571.2 3220.06 606.558C3218.77 607.945 3216.59 608.018 3215.2 606.721 3214.75 606.294 3214.42 605.752 3214.25 605.152L3193.87 533.921C3193.87 533.865 3193.82 533.862 3193.8 533.921L3149.81 649.228C3149.3 650.559 3148.02 651.438 3146.6 651.438Z" fill="#990000"/></g></g></g><g><g><g><path d="M87.4895 23.6458C91.4074 23.6458 94.5833 20.4698 94.5833 16.5521 94.5833 12.6343 91.4074 9.45833 87.4895 9.45833 83.5717 9.45833 80.3958 12.6343 80.3958 16.5521 80.3958 20.4698 83.5717 23.6458 87.4895 23.6458ZM87.4895 14.1875C88.7955 14.1875 89.8541 15.2462 89.8541 16.5521 89.8541 17.858 88.7955 18.9167 87.4895 18.9167 86.1836 18.9167 85.125 17.858 85.125 16.5521 85.125 15.2462 86.1836 14.1875 87.4895 14.1875Z" fill="#990000" transform="matrix(1.00441 0 0 1 3891 588)"/><path d="M132.417 37.8333C137.64 37.8333 141.875 33.5986 141.875 28.375 141.875 23.1513 137.64 18.9167 132.417 18.9167 127.193 18.9167 122.958 23.1513 122.958 28.375 122.958 33.5986 127.193 37.8333 132.417 37.8333ZM132.417 23.6458C135.029 23.6458 137.146 25.7631 137.146 28.375 137.146 30.9869 135.029 33.1041 132.417 33.1041 129.805 33.1041 127.687 30.9869 127.687 28.375 127.687 25.7631 129.805 23.6458 132.417 23.6458Z" fill="#990000" transform="matrix(1.00441 0 0 1 3891 588)"/><path d="M94.5833 66.2083C102.419 66.2083 108.771 59.8563 108.771 52.0208 108.771 44.1853 102.419 37.8333 94.5833 37.8333 86.7478 37.8333 80.3958 44.1853 80.3958 52.0208 80.405 59.8525 86.7515 66.1991 94.5833 66.2083ZM94.5833 42.5625C99.8069 42.5625 104.042 46.7972 104.042 52.0208 104.042 57.2444 99.8069 61.4791 94.5833 61.4791 89.3597 61.4791 85.125 57.2444 85.125 52.0208 85.125 46.7972 89.3597 42.5625 94.5833 42.5625Z" fill="#990000" transform="matrix(1.00441 0 0 1 3891 588)"/><path d="M127.687 66.2083C131.605 66.2083 134.781 63.0324 134.781 59.1146 134.781 55.1967 131.605 52.0208 127.687 52.0208 123.77 52.0208 120.594 55.1967 120.594 59.1146 120.594 63.0324 123.77 66.2083 127.687 66.2083ZM127.687 56.75C128.993 56.75 130.052 57.8086 130.052 59.1146 130.052 60.4205 128.993 61.4791 127.687 61.4791 126.381 61.4791 125.323 60.4205 125.323 59.1146 125.323 57.8086 126.381 56.75 127.687 56.75Z" fill="#990000" transform="matrix(1.00441 0 0 1 3891 588)"/><path d="M177.164 77.1256C176.798 76.2422 175.935 75.6664 174.979 75.6666L52.0208 75.6666C50.7148 75.6669 49.6565 76.7257 49.6567 78.0317 49.6569 78.6585 49.9059 79.2596 50.349 79.703L55.6504 85.0067C57.875 87.2186 59.1226 90.2284 59.1146 93.3655L59.1146 205.719C59.1224 212.245 64.411 217.534 70.9375 217.542L156.062 217.542C162.589 217.534 167.878 212.245 167.885 205.719L167.885 93.3655C167.877 90.2284 169.125 87.2186 171.349 85.0067L176.651 79.703C177.328 79.0267 177.53 78.0095 177.164 77.1256ZM156.062 212.812 70.9375 212.812C67.0196 212.812 63.8437 209.637 63.8437 205.719L63.8437 106.385C78.6897 106.465 93.4748 104.483 107.775 100.495 115.001 98.2848 122.498 97.0912 130.052 96.9479 139.775 96.8535 149.425 98.63 158.477 102.181 160.008 102.77 161.57 103.277 163.156 103.699L163.156 205.719C163.156 209.637 159.98 212.812 156.062 212.812ZM168.001 81.6656C164.899 84.7691 163.156 88.9776 163.156 93.3655L163.156 98.8041C162.269 98.5227 161.243 98.1538 160.082 97.7353 150.512 94.0118 140.321 92.1397 130.052 92.2187 122.095 92.3483 114.195 93.5923 106.584 95.9145 92.6765 99.8227 78.2892 101.756 63.8437 101.658L63.8437 93.3655C63.8444 88.9792 62.1024 84.7722 59.001 81.6703L57.7691 80.436C57.7478 80.4147 57.7549 80.3958 57.7857 80.3958L169.214 80.3958C169.245 80.3958 169.252 80.4147 169.231 80.436Z" fill="#990000" transform="matrix(1.00441 0 0 1 3891 588)"/><path d="M118.229 115.865 146.604 115.865 146.604 120.594 118.229 120.594Z" fill="#990000" transform="matrix(1.00441 0 0 1 3891 588)"/><path d="M118.229 134.781 146.604 134.781 146.604 139.51 118.229 139.51Z" fill="#990000" transform="matrix(1.00441 0 0 1 3891 588)"/><path d="M118.229 153.698 146.604 153.698 146.604 158.427 118.229 158.427Z" fill="#990000" transform="matrix(1.00441 0 0 1 3891 588)"/><path d="M118.229 172.614 146.604 172.614 146.604 177.344 118.229 177.344Z" fill="#990000" transform="matrix(1.00441 0 0 1 3891 588)"/><path d="M118.229 191.531 146.604 191.531 146.604 196.26 118.229 196.26Z" fill="#990000" transform="matrix(1.00441 0 0 1 3891 588)"/></g></g></g><g><g><g><path d="M3063.62 1214.83 3192.38 1214.83 3192.38 1043.17 3063.62 1043.17ZM3067.92 1047.46 3188.08 1047.46 3188.08 1210.54 3067.92 1210.54Z" fill="#990000"/><path d="M3085.08 1075.35 3170.92 1075.35 3170.92 1079.65 3085.08 1079.65Z" fill="#990000"/><path d="M3085.08 1092.52 3170.92 1092.52 3170.92 1096.81 3085.08 1096.81Z" fill="#990000"/><path d="M3085.08 1109.69 3170.92 1109.69 3170.92 1113.98 3085.08 1113.98Z" fill="#990000"/><path d="M3085.08 1126.85 3128 1126.85 3128 1131.15 3085.08 1131.15Z" fill="#990000"/><path d="M3128 1169.77 3170.92 1169.77 3170.92 1174.06 3128 1174.06Z" fill="#990000"/><path d="M3110.39 1157.52 3099.57 1168.35 3088.75 1157.52 3085.71 1160.56 3096.53 1171.38 3085.71 1182.2 3088.75 1185.24 3099.57 1174.41 3110.39 1185.24 3113.42 1182.2 3102.6 1171.38 3113.42 1160.56 3110.39 1157.52Z" fill="#990000"/></g></g></g><g><g><g><path d="M126.75 156 47.5312 156 74.134 91.6913C74.508 90.779 75.3976 90.1842 76.3839 90.1874L192.711 90.1874C194.057 90.1886 195.148 91.2806 195.147 92.6269 195.146 92.9527 195.08 93.2755 194.953 93.5755L185.447 116.049 189.937 117.95 199.443 95.4743C201.017 91.755 199.278 87.4642 195.558 85.8903 194.657 85.5091 193.689 85.3127 192.711 85.3124L76.3839 85.3124C73.4228 85.3046 70.7518 87.0901 69.6271 89.8291L40.2187 160.875 126.75 160.875Z" fill="#990000" transform="matrix(1 0 0 1 3820 1220)"/><path d="M191.47 130.279C178.657 117.405 157.833 117.355 144.958 130.168 132.709 142.359 131.984 161.95 143.298 175.012L139.218 179.093C135.912 177.305 131.826 177.891 129.156 180.536L112.186 197.506C108.854 200.837 108.854 206.239 112.186 209.571 115.518 212.903 120.92 212.903 124.251 209.571L141.224 192.601C143.868 189.931 144.453 185.845 142.664 182.539L146.737 178.452C160.468 190.344 181.238 188.854 193.13 175.123 204.444 162.061 203.719 142.47 191.47 130.279ZM148.38 133.726C156.468 125.658 168.64 123.299 179.156 127.761L166.605 156 140.302 156C139.565 147.745 142.523 139.588 148.38 133.726ZM137.775 189.15 120.805 206.12C119.376 207.548 117.061 207.548 115.632 206.12 114.204 204.691 114.204 202.376 115.632 200.947L132.6 183.975C134.029 182.546 136.346 182.546 137.775 183.975 139.204 185.404 139.204 187.721 137.775 189.15ZM188.024 173.372C177.115 184.319 159.397 184.349 148.451 173.44 144.963 169.965 142.454 165.63 141.177 160.875L169.769 160.875 183.473 130.048C196.452 138.46 200.153 155.801 191.741 168.779 190.667 170.436 189.421 171.975 188.024 173.369Z" fill="#990000" transform="matrix(1 0 0 1 3820 1220)"/><path d="M83.8938 46.3125C84.3567 46.3127 84.8098 46.4446 85.2003 46.6927L109.619 62.2317C110.791 62.9798 112.153 63.3764 113.544 63.3749L175.5 63.3749C176.846 63.3749 177.937 64.4662 177.937 65.8124L177.937 80.4374 182.812 80.4374 182.812 65.8124C182.812 61.7737 179.538 58.4999 175.5 58.4999L113.544 58.4999C113.081 58.4997 112.627 58.3678 112.237 58.1197L87.8182 42.5806C86.646 41.8326 85.2841 41.436 83.8938 41.4375L41.4375 41.4375C37.3988 41.4375 34.125 44.7113 34.125 48.7499L34.125 160.875 39 160.875 39 48.7499C39 47.4037 40.0912 46.3125 41.4375 46.3125Z" fill="#990000" transform="matrix(1 0 0 1 3820 1220)"/></g></g></g><g><g><g><path d="M399.75 87.1557C341.298 29.5268 247.197 30.1936 189.568 88.6451 133.91 145.097 132.357 235.296 186.037 293.632L164.712 314.957C150.906 304.194 132.281 303.877 121.252 314.926L49.2 387.091C43.1527 393.283 40.1999 401.859 41.1537 410.461 43.308 430.13 59.5955 445.223 79.3709 445.875 87.0491 446.012 94.4599 443.057 99.9375 437.675L171.959 365.53C178.007 359.341 180.96 350.766 180.005 342.165 179.302 334.861 176.494 327.918 171.923 322.178L193.253 300.853C253.625 356.467 347.65 352.61 403.264 292.238 457.011 233.894 455.464 143.625 399.75 87.1557ZM164.707 358.289 92.6651 430.454C84.5676 438.562 69.864 437.045 59.8651 427.087 55.0507 422.436 52.0295 416.237 51.332 409.58 50.6642 403.992 52.5312 398.399 56.4211 394.333L128.468 322.168C132.03 318.711 136.832 316.833 141.793 316.956 149.156 317.161 156.147 320.24 161.268 325.535 166.082 330.188 169.101 336.389 169.796 343.047 170.464 348.633 168.597 354.225 164.707 358.289ZM392.472 290.075C338.431 344.111 250.817 344.107 196.78 290.066 142.745 236.025 142.749 148.41 196.79 94.3743 250.831 40.3378 338.445 40.3419 392.482 94.383 418.43 120.334 433.007 155.53 433.006 192.228 432.988 228.926 418.411 264.116 392.472 290.075Z" fill="#990000" transform="matrix(1 0 0 1.00203 3282 745)"/><path d="M354.937 205.979C353.976 205.018 352.673 204.478 351.314 204.477L338.194 204.477C337.604 200.346 336.851 196.185 335.903 191.977L354.271 188.093C356.223 187.681 357.759 186.173 358.207 184.228L367.006 145.929C367.677 143.179 365.991 140.407 363.241 139.736 360.491 139.066 357.718 140.751 357.048 143.502 357.037 143.545 357.027 143.589 357.018 143.633L348.951 178.739 333.309 182.05C332.879 180.574 332.52 179.073 332.049 177.622 330.764 173.697 328.391 170.218 325.207 167.587 326.253 166.285 327.05 164.802 327.559 163.211 332.111 148.797 326.7 133.101 314.234 124.553 316.291 116.921 321.514 110.533 328.584 107 331.066 105.639 331.975 102.524 330.615 100.042 329.255 97.56 326.14 96.6508 323.658 98.0115 323.643 98.0197 323.628 98.0279 323.613 98.0361 314.712 102.598 307.996 110.517 304.948 120.043 302.796 119.333 300.577 118.843 298.326 118.582 293.589 118.091 288.801 118.576 284.258 120.007 281.205 110.497 274.493 102.591 265.603 98.0361 263.121 96.6754 260.006 97.5851 258.645 100.067 257.295 102.532 258.181 105.624 260.632 107 267.699 110.53 272.921 116.911 274.982 124.537 273.762 125.363 272.597 126.269 271.497 127.249 264.23 133.798 260.078 143.121 260.073 152.904 260.07 156.411 260.608 159.898 261.667 163.241 262.174 164.823 262.968 166.298 264.009 167.593 260.826 170.216 258.454 173.688 257.167 177.607 256.696 179.057 256.337 180.559 255.907 182.035L240.27 178.724 232.203 143.618C231.606 140.851 228.878 139.093 226.112 139.691 223.345 140.288 221.587 143.016 222.185 145.782 222.194 145.826 222.204 145.87 222.215 145.914L231.014 184.213C231.461 186.156 232.995 187.664 234.945 188.077L253.318 191.962C252.37 196.17 251.617 200.331 251.028 204.462L237.908 204.462C236.548 204.462 235.245 205.003 234.284 205.963L209.09 231.153C207.087 233.154 207.086 236.4 209.087 238.402 211.088 240.404 214.334 240.406 216.336 238.405L240.07 214.737 249.977 214.737C249.808 217.269 249.613 219.827 249.613 222.21 249.623 225.581 250.013 228.94 250.776 232.224L236.575 236.165C234.964 236.613 233.673 237.818 233.116 239.394L220.518 275.084C219.5 277.725 220.816 280.692 223.457 281.71 226.098 282.728 229.064 281.413 230.082 278.772 230.117 278.681 230.149 278.59 230.179 278.498L241.9 245.318 254.2 241.9C265.025 264.219 291.894 273.538 314.214 262.713 323.292 258.31 330.623 250.978 335.026 241.9L347.352 245.323 359.063 278.492C360.005 281.162 362.933 282.561 365.602 281.619 368.271 280.676 369.671 277.748 368.728 275.079L356.131 239.389C355.572 237.811 354.279 236.606 352.667 236.16L338.465 232.219C339.228 228.935 339.619 225.576 339.629 222.205 339.629 219.821 339.439 217.264 339.27 214.732L349.176 214.732 372.869 238.425C374.872 240.427 378.117 240.425 380.119 238.423 382.12 236.42 382.118 233.175 380.116 231.173ZM274.628 162.488C273.185 162.488 271.91 161.549 271.481 160.172 270.739 157.826 270.363 155.38 270.364 152.92 270.368 146.04 273.289 139.484 278.4 134.88 282.832 130.847 288.613 128.62 294.605 128.637 295.497 128.635 296.388 128.682 297.276 128.776 308.249 130.026 317.015 138.491 318.647 149.414 319.171 153.006 318.876 156.669 317.786 160.131L317.786 160.131C317.363 161.518 316.085 162.468 314.634 162.473L274.628 162.473ZM299.741 256.542 299.741 213.8C299.741 210.969 297.446 208.675 294.616 208.675 291.785 208.675 289.491 210.969 289.491 213.8L289.491 256.542C272.48 253.998 259.882 239.405 259.848 222.205 260.125 208.124 262.516 194.165 266.941 180.795 268.498 175.982 272.988 172.727 278.047 172.743L311.18 172.743C316.239 172.727 320.728 175.982 322.286 180.795 326.71 194.165 329.101 208.124 329.379 222.205 329.346 239.398 316.759 253.989 299.756 256.542Z" fill="#990000" transform="matrix(1 0 0 1.00203 3282 745)"/></g></g></g><path d="M3441 934C3441 858.889 3501.89 798 3577 798 3652.11 798 3713 858.889 3713 934 3713 1009.11 3652.11 1070 3577 1070 3501.89 1070 3441 1009.11 3441 934Z" fill="#FFFFFF" fill-rule="evenodd"/><g><g><g><path d="M3580.03 902.296C3572.36 902.296 3566.34 908.323 3566.34 915.994 3566.34 923.665 3572.36 929.692 3580.03 929.692 3587.71 929.692 3593.73 923.665 3593.73 915.994 3593.73 915.994 3593.73 915.994 3593.73 915.994 3593.73 908.323 3587.71 902.296 3580.03 902.296ZM3580.03 924.213C3575.38 924.213 3571.82 920.651 3571.82 915.994 3571.82 911.337 3575.38 907.775 3580.03 907.775 3584.69 907.775 3588.25 911.337 3588.25 915.994 3588.25 920.651 3584.69 924.213 3580.03 924.213 3580.03 924.213 3580.03 924.213 3580.03 924.213L3580.03 924.213Z" fill="#990000"/><path d="M3605.51 903.118 3607.98 895.721 3600.31 888.05 3592.91 890.516C3591.54 889.968 3590.17 889.42 3588.8 888.872L3585.24 882.023 3574.56 882.023 3570.99 888.872C3569.62 889.42 3568.25 889.968 3566.88 890.516L3559.49 888.05 3551.82 895.721 3554.28 903.118C3553.46 904.488 3552.91 905.857 3552.64 907.227L3545.79 910.789 3545.79 921.473 3552.64 925.034C3553.19 926.404 3553.73 927.774 3554.28 929.144L3551.82 936.541 3559.76 944.212 3567.16 941.746C3568.53 942.294 3569.9 942.842 3571.27 943.39L3574.83 950.239 3585.51 950.239 3589.07 943.39C3590.44 942.842 3591.81 942.294 3592.91 941.746L3600.31 944.212 3607.98 936.541 3605.51 929.144C3606.06 927.774 3606.88 926.404 3607.16 925.034L3614.01 921.473 3614.01 910.789 3607.16 907.227C3606.88 905.857 3606.33 904.488 3605.51 903.118ZM3608.53 917.912 3602.5 920.925 3602.23 922.021C3601.68 923.939 3600.86 925.582 3600.03 927.226L3599.49 928.322 3601.68 934.897 3598.94 937.637 3592.64 935.445 3591.54 935.993C3589.9 936.815 3588.25 937.637 3586.61 937.911L3585.24 938.458 3582.23 944.486 3578.12 944.486 3575.1 938.458 3574.01 938.184C3572.36 937.637 3570.45 937.089 3569.08 935.993L3567.98 935.445 3561.41 937.637 3558.39 934.623 3560.58 928.322 3560.04 927.226C3559.21 925.582 3558.39 923.939 3557.84 922.295L3557.57 921.199 3551.54 918.186 3551.54 914.35 3557.57 911.337 3557.84 910.241C3558.39 908.597 3558.94 906.679 3560.04 905.31L3560.58 904.214 3558.39 897.365 3561.13 894.351 3567.71 896.543 3568.8 895.995C3570.45 895.173 3572.09 894.351 3574.01 893.803L3575.1 893.529 3578.12 887.502 3581.95 887.502 3584.97 893.529 3586.06 893.803C3587.71 894.351 3589.62 894.899 3590.99 895.995L3592.09 896.543 3598.66 894.351 3601.4 897.091 3599.21 903.666 3599.76 904.762C3600.58 906.405 3601.4 908.049 3601.95 909.693L3602.23 910.789 3608.25 913.802 3608.53 917.912Z" fill="#990000"/><path d="M3648.52 917.912 3648.52 915.446C3648.52 877.64 3617.84 846.956 3580.03 846.956 3542.23 846.956 3511.54 877.64 3511.54 915.446L3511.54 917.912C3511.82 926.13 3513.46 934.075 3516.2 941.746 3518.94 948.869 3523.05 955.444 3527.98 961.197 3534.28 968.046 3541.13 981.196 3544.15 987.223 3544.97 988.867 3546.89 990.237 3548.8 990.237L3610.99 990.237C3612.91 990.237 3614.83 989.141 3615.65 987.223 3618.66 981.196 3625.51 968.046 3631.54 961.197 3636.74 955.444 3640.58 948.869 3643.32 941.746 3646.61 934.075 3648.25 925.856 3648.52 917.912ZM3643.04 917.912C3642.77 925.308 3641.4 932.705 3638.66 939.828 3636.2 946.403 3632.36 952.43 3627.7 957.635 3621.13 964.758 3614.28 977.635 3610.99 984.757L3549.08 984.757C3545.52 977.635 3538.67 964.758 3532.37 957.635 3527.71 952.43 3524.15 946.403 3521.41 939.828 3518.67 932.979 3517.3 925.582 3517.02 917.912L3517.02 915.72C3517.02 880.927 3545.24 852.709 3580.03 852.709 3614.83 852.709 3643.04 880.927 3643.04 915.72L3643.04 915.72 3643.04 917.912Z" fill="#990000"/><path d="M3610.44 1006.67 3550.17 1006.67C3548.53 1006.67 3547.43 1007.77 3547.43 1009.41 3547.43 1011.06 3548.53 1012.15 3550.17 1012.15L3610.44 1012.15C3612.09 1012.15 3613.18 1011.06 3613.18 1009.41 3613.18 1007.77 3612.09 1006.67 3610.44 1006.67Z" fill="#990000"/><path d="M3580.86 837.094C3582.5 837.094 3583.6 835.998 3583.6 834.354L3583.6 809.698C3583.6 808.054 3582.5 806.958 3580.86 806.958 3579.21 806.958 3578.12 808.054 3578.12 809.698L3578.12 834.354C3578.12 835.998 3579.21 837.094 3580.86 837.094Z" fill="#990000"/><path d="M3497.85 913.802 3473.19 913.802C3471.55 913.802 3470.45 914.898 3470.45 916.542 3470.45 918.186 3471.55 919.281 3473.19 919.281L3497.85 919.281C3499.49 919.281 3500.59 918.186 3500.59 916.542 3500.59 914.898 3499.22 913.802 3497.85 913.802Z" fill="#990000"/><path d="M3686.88 913.802 3662.22 913.802C3660.58 913.802 3659.48 914.898 3659.48 916.542 3659.48 918.186 3660.58 919.281 3662.22 919.281L3686.88 919.281C3688.52 919.281 3689.62 918.186 3689.62 916.542 3689.62 914.898 3688.25 913.802 3686.88 913.802Z" fill="#990000"/><path d="M3520.04 860.38C3521.13 861.476 3522.78 861.476 3523.87 860.38 3524.97 859.284 3524.97 857.641 3523.87 856.545L3506.34 839.012C3505.24 837.916 3503.6 837.916 3502.5 838.738 3501.41 839.833 3501.41 841.477 3502.23 842.573 3502.23 842.573 3502.23 842.573 3502.5 842.847L3520.04 860.38Z" fill="#990000"/><path d="M3640.03 972.703C3638.94 971.607 3637.29 971.607 3636.2 972.703 3635.1 973.799 3635.1 975.443 3636.2 976.539 3636.2 976.539 3636.2 976.539 3636.2 976.539L3653.73 994.072C3654.82 995.168 3656.47 995.168 3657.56 994.072 3658.66 992.976 3658.66 991.332 3657.56 990.237L3640.03 972.703Z" fill="#990000"/><path d="M3653.18 839.286 3636.2 856.271C3635.1 857.367 3635.1 859.011 3635.92 860.106 3637.02 861.202 3638.66 861.202 3639.76 860.38 3639.76 860.38 3639.76 860.38 3640.03 860.106L3657.56 842.573C3658.66 841.477 3658.66 839.833 3657.56 838.738 3656.47 837.642 3654.82 837.642 3653.73 838.738L3653.18 839.286Z" fill="#990000"/><path d="M3520.04 972.703 3502.5 990.237C3501.41 991.332 3501.41 992.976 3502.5 994.072 3503.6 995.168 3505.24 995.168 3506.34 994.072 3506.34 994.072 3506.34 994.072 3506.34 994.072L3523.87 976.539C3524.97 975.443 3524.97 973.799 3523.87 972.703 3522.78 971.607 3521.13 971.607 3520.04 972.703L3520.04 972.703Z" fill="#990000"/><path d="M3580.03 1045.3C3571.82 1045.3 3564.97 1039 3564.14 1030.78 3564.14 1029.14 3565.24 1028.04 3566.61 1027.77 3566.61 1027.77 3566.88 1027.77 3566.88 1027.77L3593.18 1027.77C3594.83 1027.77 3595.92 1028.86 3595.92 1030.51 3595.92 1030.51 3595.92 1030.78 3595.92 1030.78 3595.1 1039 3588.25 1045.3 3580.03 1045.3ZM3570.45 1033.25C3572.64 1038.45 3578.66 1041.19 3583.87 1039.28 3586.61 1038.18 3588.8 1035.99 3589.9 1033.25L3570.45 1033.25Z" fill="#990000"/></g></g></g></g></svg>